<?xml version="1.0" encoding="UTF-8"?>
<svg xmlns="http://www.w3.org/2000/svg" xmlns:xlink="http://www.w3.org/1999/xlink" width="128pt" height="128pt" viewBox="0 0 128 128" version="1.1">
<g id="surface1">
<rect x="0" y="0" width="128" height="128" style="fill:rgb(70%,70%,70%);fill-opacity:0.5;stroke:none;"/>
<path style="fill:none;stroke-width:2;stroke-linecap:butt;stroke-linejoin:miter;stroke:rgb(0%,0%,0%);stroke-opacity:1;stroke-miterlimit:10;" d="M 64.5 64.5 L 64.5 64.503906 L 64.503906 64.503906 L 64.503906 64.511719 L 64.507812 64.515625 L 64.507812 64.523438 L 64.515625 64.53125 L 64.519531 64.542969 L 64.527344 64.5625 L 64.539062 64.585938 L 64.554688 64.621094 L 64.574219 64.667969 L 64.605469 64.734375 L 64.640625 64.820312 L 64.695312 64.9375 L 64.761719 65.089844 L 64.851562 65.292969 L 64.972656 65.5625 L 65.125 65.914062 L 65.328125 66.367188 L 65.585938 66.953125 L 65.917969 67.703125 L 66.339844 68.660156 L 66.871094 69.871094 L 67.539062 71.359375 L 68.375 72.96875 L 69.40625 74.660156 L 70.675781 76.4375 L 72.230469 78.292969 L 74.117188 80.230469 L 76.394531 82.242188 L 79.113281 84.324219 L 82.027344 86.472656 L 84.992188 88.679688 L 87.996094 90.9375 L 91.023438 93.238281 L 94.054688 95.570312 L 97.078125 97.929688 L 100.070312 100.304688 L 103.011719 102.679688 L 105.886719 105.050781 L 108.667969 107.402344 L 111.339844 109.71875 L 113.886719 111.996094 L 116.289062 114.21875 L 118.527344 116.375 L 120.644531 118.472656 L 122.714844 120.53125 L 124.730469 122.542969 L 126.683594 124.503906 L 128.566406 126.410156 L 130.375 128.261719 L 132.101562 130.058594 L 133.734375 131.789062 L 135.273438 133.460938 L 136.714844 135.074219 L 138.019531 136.589844 L 139.167969 137.980469 L 140.167969 139.25 L 141.027344 140.414062 L 141.746094 141.476562 L 142.34375 142.449219 L 142.851562 143.351562 L 143.261719 144.195312 L 143.585938 144.988281 L 143.863281 145.757812 L 144.074219 146.484375 L 144.203125 147.144531 L 144.253906 147.742188 L 144.207031 148.261719 L 144.046875 148.707031 L 143.78125 149.070312 L 143.394531 149.355469 L 142.878906 149.550781 L 142.226562 149.664062 L 141.4375 149.6875 L 140.550781 149.625 L 139.589844 149.492188 L 138.550781 149.28125 L 137.410156 148.992188 L 136.160156 148.621094 L 134.785156 148.171875 L 133.28125 147.640625 L 131.636719 147.035156 L 129.855469 146.355469 L 127.910156 145.601562 L 125.921875 144.808594 L 123.957031 143.992188 L 121.960938 143.140625 L 119.890625 142.234375 L 117.710938 141.265625 L 115.386719 140.21875 L 112.894531 139.089844 L 110.203125 137.867188 L 107.296875 136.550781 L 104.164062 135.136719 L 101.007812 133.710938 L 97.980469 132.320312 L 94.96875 130.925781 L 91.878906 129.492188 L 88.636719 127.992188 L 85.171875 126.402344 L 81.449219 124.695312 L 77.445312 122.863281 L 73.109375 120.890625 L 68.484375 118.769531 L 63.769531 116.550781 L 59.03125 114.292969 L 54.25 112.007812 L 49.441406 109.699219 L 44.609375 107.382812 L 39.757812 105.058594 L 34.890625 102.730469 L 29.996094 100.40625 L 25.078125 98.089844 L 20.117188 95.78125 L 14.96875 93.453125 L 9.539062 91.097656 L 3.917969 88.742188 L -1.828125 86.40625 L -7.652344 84.105469 L -13.492188 81.847656 L -19.289062 79.644531 L -24.96875 77.496094 L -30.421875 75.410156 L -35.503906 73.386719 L -40.503906 71.359375 L -45.796875 69.269531 L -51.273438 67.140625 L -56.519531 64.992188 L -61.148438 62.835938 L -65.070312 60.699219 L -68.207031 58.59375 L -70.496094 56.546875 L -71.859375 54.574219 L -72.261719 52.699219 L -71.621094 50.875 L -69.957031 49.035156 L -67.378906 47.1875 L -64.589844 45.332031 L -61.898438 43.46875 L -59.335938 41.605469 L -56.925781 39.753906 L -54.660156 37.917969 L -52.542969 36.113281 L -50.566406 34.359375 L -48.597656 32.675781 L -46.542969 31.066406 L -44.433594 29.523438 L -42.300781 28.039062 L -40.164062 26.605469 L -38.042969 25.210938 L -35.949219 23.84375 L -33.90625 22.484375 L -31.921875 21.117188 L -30.015625 19.707031 L -28.113281 18.3125 L -26.148438 16.992188 L -24.144531 15.742188 L -22.113281 14.554688 L -20.078125 13.425781 L -18.050781 12.335938 L -16.054688 11.273438 L -14.097656 10.210938 L -12.210938 9.125 L -10.402344 7.984375 L -8.65625 6.828125 L -6.945312 5.726562 L -5.257812 4.675781 L -3.585938 3.675781 L -1.921875 2.71875 L -0.261719 1.800781 L 1.402344 0.898438 L 3.078125 0.0078125 L 4.769531 -0.898438 L 6.476562 -1.855469 L 8.203125 -2.824219 L 9.945312 -3.753906 L 11.699219 -4.640625 L 13.460938 -5.496094 L 15.230469 -6.324219 L 17.003906 -7.140625 L 18.78125 -7.894531 L 20.5625 -8.605469 L 22.34375 -9.289062 L 24.125 -9.964844 L 25.910156 -10.617188 L 27.707031 -11.21875 L 29.507812 -11.761719 L 31.316406 -12.257812 L 33.136719 -12.664062 L 34.957031 -13.011719 L 36.78125 -13.277344 L 38.609375 -13.457031 L 40.4375 -13.550781 L 42.261719 -13.542969 L 44.097656 -13.480469 L 45.957031 -13.40625 L 47.832031 -13.3125 L 49.71875 -13.210938 L 51.613281 -13.089844 L 53.507812 -12.953125 L 55.398438 -12.804688 L 57.28125 -12.640625 L 59.148438 -12.457031 L 60.992188 -12.261719 L 62.824219 -12.046875 L 64.648438 -11.804688 L 66.464844 -11.546875 L 68.273438 -11.273438 L 70.0625 -10.988281 L 71.835938 -10.691406 L 73.589844 -10.386719 L 75.320312 -10.082031 L 77.027344 -9.777344 L 78.707031 -9.480469 L 80.367188 -9.1875 L 82.011719 -8.898438 L 83.636719 -8.609375 L 85.242188 -8.316406 L 86.824219 -8.015625 L 88.378906 -7.710938 L 89.902344 -7.390625 L 91.386719 -7.058594 L 92.828125 -6.703125 L 94.226562 -6.328125 L 95.578125 -5.9375 L 96.890625 -5.53125 L 98.15625 -5.113281 L 99.382812 -4.679688 L 100.566406 -4.238281 L 101.707031 -3.78125 L 102.804688 -3.316406 L 103.859375 -2.832031 L 104.875 -2.339844 L 105.84375 -1.835938 L 106.769531 -1.324219 L 107.648438 -0.800781 L 108.480469 -0.269531 L 109.265625 0.273438 L 110.003906 0.824219 L 110.699219 1.390625 L 111.347656 1.964844 L 111.949219 2.546875 L 112.503906 3.144531 L 113.015625 3.753906 L 113.480469 4.375 L 113.898438 5.003906 L 114.269531 5.644531 L 114.59375 6.292969 L 114.871094 6.949219 L 115.101562 7.613281 L 115.292969 8.285156 L 115.4375 8.960938 L 115.542969 9.644531 L 115.605469 10.335938 L 115.625 11.023438 L 115.59375 11.710938 L 115.519531 12.394531 L 115.402344 13.082031 L 115.25 13.777344 L 115.066406 14.480469 L 114.851562 15.199219 L 114.609375 15.933594 L 114.34375 16.691406 L 114.058594 17.464844 L 113.746094 18.265625 L 113.402344 19.085938 L 113.03125 19.917969 L 112.636719 20.765625 L 112.21875 21.617188 L 111.78125 22.46875 L 111.332031 23.324219 L 110.867188 24.171875 L 110.398438 25.015625 L 109.917969 25.847656 L 109.4375 26.671875 L 108.949219 27.488281 L 108.453125 28.304688 L 107.949219 29.113281 L 107.433594 29.917969 L 106.90625 30.722656 L 106.363281 31.519531 L 105.804688 32.3125 L 105.234375 33.105469 L 104.640625 33.890625 L 104.03125 34.675781 L 103.40625 35.453125 L 102.765625 36.226562 L 102.117188 36.996094 L 101.460938 37.757812 L 100.804688 38.515625 L 100.144531 39.265625 L 99.492188 40.003906 L 98.84375 40.738281 L 98.203125 41.464844 L 97.570312 42.183594 L 96.941406 42.894531 L 96.3125 43.601562 L 95.6875 44.296875 L 95.066406 44.984375 L 94.453125 45.664062 L 93.84375 46.332031 L 93.238281 46.992188 L 92.640625 47.644531 L 92.050781 48.289062 L 91.464844 48.921875 L 90.882812 49.550781 L 90.308594 50.167969 L 89.738281 50.777344 L 89.175781 51.378906 L 88.621094 51.964844 L 88.078125 52.542969 L 87.542969 53.113281 L 87.015625 53.667969 L 86.503906 54.210938 L 86 54.742188 L 85.503906 55.261719 L 85.015625 55.773438 L 84.535156 56.273438 L 84.0625 56.765625 L 83.601562 57.246094 L 83.152344 57.71875 L 82.710938 58.175781 L 82.257812 58.621094 L 81.765625 59.03125 L 81.238281 59.414062 L 80.675781 59.773438 L 80.085938 60.105469 L 79.46875 60.417969 L 78.828125 60.707031 L 78.167969 60.976562 L 77.492188 61.226562 L 76.804688 61.457031 L 76.101562 61.675781 L 75.390625 61.875 L 74.671875 62.0625 L 73.953125 62.238281 L 73.277344 62.398438 L 72.644531 62.550781 L 72.058594 62.691406 L 71.515625 62.820312 L 71.011719 62.941406 L 70.542969 63.050781 L 70.109375 63.15625 L 69.710938 63.253906 L 69.335938 63.339844 L 68.992188 63.421875 L 68.671875 63.5 L 68.375 63.570312 L 68.097656 63.636719 L 67.839844 63.699219 L 67.601562 63.753906 L 67.382812 63.808594 L 67.175781 63.855469 L 66.988281 63.902344 L 66.808594 63.945312 L 66.644531 63.984375 L 66.492188 64.019531 L 66.351562 64.054688 L 66.21875 64.085938 L 66.097656 64.117188 L 65.984375 64.140625 L 65.878906 64.167969 L 65.78125 64.191406 L 65.691406 64.210938 L 65.609375 64.234375 Z M 64.5 64.5 "/>
<path style="fill:none;stroke-width:0.7;stroke-linecap:butt;stroke-linejoin:miter;stroke:rgb(0%,0%,0%);stroke-opacity:1;stroke-miterlimit:10;" d="M 2.800781 2.800781 L 124.402344 2.800781 L 124.402344 124.402344 L 2.800781 124.402344 Z M 2.800781 2.800781 "/>
<path style="fill:none;stroke-width:0.7;stroke-linecap:butt;stroke-linejoin:miter;stroke:rgb(0%,0%,0%);stroke-opacity:1;stroke-miterlimit:10;" d="M 6.5 64.5 L 122.5 64.5 M 64.5 122.5 L 64.5 6.5 "/>
<path style="fill:none;stroke-width:1;stroke-linecap:butt;stroke-linejoin:miter;stroke:rgb(100%,100%,100%);stroke-opacity:1;stroke-miterlimit:10;" d="M 6.5 64.5 L 122.5 64.5 M 64.5 122.5 L 64.5 6.5 "/>
<path style="fill:none;stroke-width:3;stroke-linecap:butt;stroke-linejoin:miter;stroke:rgb(100%,100%,100%);stroke-opacity:1;stroke-miterlimit:10;" d="M 108.472656 100.414062 L 107.691406 97.390625 L 106.945312 94.3125 L 106.230469 91.175781 L 105.550781 87.976562 L 104.90625 84.71875 L 104.300781 81.394531 L 103.742188 78.007812 L 103.21875 74.554688 L 102.738281 71.03125 L 102.308594 67.46875 L 101.917969 63.820312 L 101.578125 60.152344 L 101.277344 56.449219 L 101.023438 52.707031 L 100.8125 48.976562 L 100.644531 45.632812 L 100.515625 41.828125 L 100.425781 38.980469 L 100.367188 37.171875 L 100.328125 36.003906 L 99.941406 35.972656 L 99.34375 35.921875 L 98.40625 35.839844 L 97.09375 35.722656 L 95.496094 35.542969 L 93.5625 35.3125 L 91.34375 35.007812 L 88.886719 34.636719 L 86.242188 34.1875 L 83.433594 33.671875 L 80.53125 33.09375 L 77.539062 32.449219 L 74.511719 31.746094 L 71.476562 30.996094 L 68.4375 30.203125 L 65.433594 29.367188 L 62.460938 28.496094 L 59.546875 27.597656 L 56.683594 26.675781 L 53.878906 25.726562 L 51.535156 26.222656 L 49.210938 26.691406 L 46.925781 27.136719 L 44.683594 27.554688 L 42.507812 27.949219 L 40.394531 28.316406 L 38.375 28.652344 L 36.453125 28.964844 L 34.644531 29.25 L 32.96875 29.503906 L 31.421875 29.730469 L 30.03125 29.929688 L 28.800781 30.105469 L 27.734375 30.25 L 26.835938 30.371094 L 26.117188 30.464844 L 25.550781 30.539062 L 25.148438 30.59375 L 24.890625 30.625 L 24.726562 30.648438 L 24.808594 31.097656 L 24.933594 31.796875 L 25.128906 32.898438 L 25.402344 34.417969 L 25.765625 36.199219 L 26.214844 38.316406 L 26.757812 40.691406 L 27.394531 43.257812 L 28.125 45.976562 L 28.953125 48.835938 L 29.875 51.769531 L 30.890625 54.78125 L 31.992188 57.832031 L 33.1875 60.910156 L 34.464844 64.003906 L 35.816406 67.105469 L 37.246094 70.210938 L 38.742188 73.296875 L 40.304688 76.375 L 41.929688 79.4375 L 44.492188 81.929688 L 47.15625 84.449219 L 49.929688 86.996094 L 52.816406 89.566406 L 55.824219 92.15625 L 58.957031 94.761719 L 62.214844 97.367188 L 65.601562 99.972656 L 69.109375 102.566406 L 72.699219 105.117188 L 76.386719 107.628906 L 80.078125 110.042969 L 83.738281 112.351562 L 87.304688 114.511719 L 90.644531 116.472656 L 93.527344 118.132812 L 96.171875 119.589844 L 98.097656 120.644531 L 99.320312 121.3125 L 100.113281 121.746094 L 100.136719 121.609375 L 100.179688 121.390625 L 100.238281 121.050781 L 100.332031 120.578125 L 100.460938 119.984375 L 100.628906 119.253906 L 100.84375 118.398438 L 101.113281 117.425781 L 101.4375 116.355469 L 101.820312 115.183594 L 102.257812 113.933594 L 102.753906 112.605469 L 103.308594 111.214844 L 103.917969 109.773438 L 104.570312 108.289062 L 105.273438 106.765625 L 106.019531 105.207031 L 106.800781 103.632812 L 107.621094 102.03125 L 108.429688 100.496094 Z M 108.472656 100.414062 "/>
</g>
</svg>
