<?xml version="1.0" encoding="UTF-8" standalone="no"?>
<svg
   xmlns:dc="http://purl.org/dc/elements/1.1/"
   xmlns:cc="http://creativecommons.org/ns#"
   xmlns:rdf="http://www.w3.org/1999/02/22-rdf-syntax-ns#"
   xmlns:svg="http://www.w3.org/2000/svg"
   xmlns="http://www.w3.org/2000/svg"
   xmlns:sodipodi="http://sodipodi.sourceforge.net/DTD/sodipodi-0.dtd"
   xmlns:inkscape="http://www.inkscape.org/namespaces/inkscape"
   width="128pt"
   height="128pt"
   viewBox="0 0 128 128"
   version="1.1"
   id="svg828"
   sodipodi:docname="oyPG-logo.svg"
   inkscape:version="0.92.4 (5da689c313, 2019-01-14)"
   inkscape:export-xdpi="144"
   inkscape:export-ydpi="144">
  <metadata
     id="metadata834">
    <rdf:RDF>
      <cc:Work
         rdf:about="">
        <dc:format>image/svg+xml</dc:format>
        <dc:type
           rdf:resource="http://purl.org/dc/dcmitype/StillImage" />
      </cc:Work>
    </rdf:RDF>
  </metadata>
  <defs
     id="defs832" />
  <sodipodi:namedview
     pagecolor="#ffffff"
     bordercolor="#666666"
     borderopacity="1"
     objecttolerance="10"
     gridtolerance="10"
     guidetolerance="10"
     inkscape:pageopacity="0"
     inkscape:pageshadow="2"
     inkscape:window-width="2448"
     inkscape:window-height="1572"
     id="namedview830"
     showgrid="false"
     inkscape:zoom="3.7001953"
     inkscape:cx="63.712853"
     inkscape:cy="85.333333"
     inkscape:window-x="100"
     inkscape:window-y="0"
     inkscape:window-maximized="1"
     inkscape:current-layer="svg828" />
  <path
     style="color:#000000;clip-rule:nonzero;display:inline;overflow:visible;visibility:visible;opacity:1;isolation:auto;mix-blend-mode:normal;color-interpolation:sRGB;color-interpolation-filters:linearRGB;solid-color:#000000;solid-opacity:1;fill:#b3b3b3;fill-opacity:0.99738225;fill-rule:nonzero;stroke:none;stroke-width:3.60000014;stroke-linecap:round;stroke-linejoin:bevel;stroke-miterlimit:4;stroke-dasharray:none;stroke-dashoffset:7.41540003;stroke-opacity:1;paint-order:normal;color-rendering:auto;image-rendering:auto;shape-rendering:auto;text-rendering:auto;enable-background:accumulate"
     id="path3231"
     sodipodi:type="arc"
     sodipodi:cx="64.41568"
     sodipodi:cy="63.746632"
     sodipodi:rx="64.050674"
     sodipodi:ry="64.050674"
     sodipodi:start="4.5970053"
     sodipodi:end="4.596534"
     sodipodi:open="true"
     d="M 57.041665,0.12185029 A 64.050674,64.050674 0 0 1 128.03959,56.36512 64.050674,64.050674 0 0 1 71.804688,127.36967 64.050674,64.050674 0 0 1 0.7935091,71.143136 64.050674,64.050674 0 0 1 57.011679,0.12533272" />
  <rect
     id="rect815"
     style="fill:#b3b3b3;fill-opacity:0.5;stroke:none"
     height="128"
     width="128"
     y="0"
     x="0" />
  <path
     id="path817"
     d="m 64.5,64.5 v 0.0039 h 0.0039 v 0.0078 l 0.0039,0.0039 v 0.0078 l 0.0078,0.0078 0.0039,0.01172 0.0078,0.01953 0.01172,0.02344 0.01563,0.03516 0.01953,0.04687 0.03125,0.06641 0.03516,0.08594 0.05469,0.117188 0.06641,0.152344 0.08984,0.203125 0.121094,0.269531 0.152344,0.351562 0.203125,0.453126 0.257813,0.585937 0.332031,0.75 0.421875,0.957031 0.53125,1.210938 0.667968,1.488281 0.835938,1.609375 1.03125,1.691406 1.269531,1.777344 1.554688,1.855469 1.886719,1.9375 2.277343,2.011719 2.71875,2.082031 2.914063,2.148437 2.964844,2.207032 3.003906,2.257812 3.027344,2.300781 3.03125,2.332031 3.023437,2.359376 2.992187,2.375004 2.94141,2.375 2.875,2.37109 2.78125,2.35156 2.67187,2.31641 2.54688,2.27734 2.40234,2.22266 2.23828,2.15625 2.11719,2.09766 2.07031,2.05859 2.01563,2.01172 1.95312,1.96094 1.88282,1.90625 1.80859,1.85156 1.72656,1.79687 1.63281,1.73047 1.53907,1.67188 1.4414,1.61328 1.30469,1.51562 1.14844,1.39063 1,1.26953 0.85937,1.16406 0.71875,1.0625 0.59766,0.97266 0.50781,0.90234 0.41016,0.84375 0.32422,0.79297 0.27734,0.76953 0.21094,0.72656 0.1289,0.66016 0.0508,0.59766 -0.0469,0.51953 -0.16016,0.44531 -0.26562,0.36328 -0.38672,0.28516 -0.51562,0.19531 -0.65235,0.11328 -0.78906,0.0234 -0.88672,-0.0625 -0.96094,-0.13281 -1.03906,-0.21094 -1.14062,-0.28906 -1.25,-0.3711 -1.375,-0.44922 -1.50391,-0.53125 -1.64453,-0.60546 -1.78125,-0.67969 -1.94531,-0.75391 -1.98828,-0.79297 -1.96485,-0.8164 -1.99609,-0.85157 -2.07031,-0.90625 -2.17969,-0.96875 -2.32422,-1.04687 -2.49219,-1.12891 -2.6914,-1.22265 -2.90625,-1.31641 -3.13282,-1.41406 -3.15625,-1.42578 -3.027343,-1.39063 -3.011719,-1.39453 -3.089844,-1.43359 -3.242187,-1.5 -3.464844,-1.58985 -3.722656,-1.70703 -4.003907,-1.83203 -4.335937,-1.97265 -4.625,-2.1211 -4.714844,-2.21875 -4.738281,-2.25781 -4.78125,-2.28516 -4.808594,-2.30859 -4.832031,-2.31641 -4.851563,-2.32422 -4.867187,-2.32812 -4.894531,-2.32422 L 25.078125,98.089844 20.117188,95.78125 14.96875,93.453125 9.539062,91.097656 3.917969,88.742188 -1.828125,86.40625 l -5.824219,-2.300781 -5.839844,-2.257813 -5.796874,-2.203125 -5.679688,-2.148437 -5.453125,-2.085938 -5.082031,-2.023437 -5,-2.027344 -5.292969,-2.089844 -5.476563,-2.128906 -5.246093,-2.148437 -4.628907,-2.15625 -3.921874,-2.136719 -3.136719,-2.105469 -2.289063,-2.046875 -1.363281,-1.972656 -0.402344,-1.875 0.640625,-1.824219 1.664063,-1.839844 2.578125,-1.847656 2.789062,-1.855469 2.691406,-1.863281 2.5625,-1.863281 2.410157,-1.851563 2.265625,-1.835937 2.117187,-1.804688 1.976563,-1.753906 1.96875,-1.683594 2.054687,-1.609375 2.109375,-1.542968 2.132813,-1.484376 2.136719,-1.433593 2.121093,-1.394531 2.09375,-1.367188 2.042969,-1.359375 1.984375,-1.367187 1.90625,-1.410157 1.902344,-1.394531 1.964843,-1.320312 2.003907,-1.25 2.03125,-1.1875 2.035156,-1.128907 2.027344,-1.089843 1.996093,-1.0625 1.957032,-1.0625 1.886718,-1.085938 1.808594,-1.140625 1.746094,-1.15625 1.710938,-1.101563 1.6875,-1.050781 1.671874,-1 1.664063,-0.957031 1.660156,-0.917969 1.664063,-0.902343 1.675781,-0.8906255 1.691406,-0.9062505 1.707031,-0.957031 1.726563,-0.96875 1.742187,-0.929687 1.753907,-0.886719 1.761719,-0.855469 1.769531,-0.828125 1.773437,-0.816406 1.777344,-0.753906 1.78125,-0.710938 1.78125,-0.683593 1.78125,-0.675782 1.785156,-0.652344 1.796875,-0.601562 1.800781,-0.542969 1.808594,-0.496093 1.820313,-0.40625 1.820312,-0.347657 1.824219,-0.265625 1.828125,-0.179687 1.828125,-0.09375 1.824219,0.0078 1.835937,0.0625 1.859375,0.07422 1.875,0.09375 1.886719,0.101562 1.894531,0.121094 1.894531,0.136719 1.890626,0.148437 1.882812,0.164063 1.867188,0.183594 1.84375,0.195312 1.832031,0.214844 1.824219,0.242187 1.816406,0.257813 1.808594,0.273437 1.789062,0.285157 1.773438,0.296875 1.753906,0.304687 1.730468,0.304688 1.707032,0.304687 1.679687,0.296875 1.660157,0.292969 1.644531,0.289062 1.625,0.289063 1.605469,0.292969 1.582031,0.300781 1.554687,0.304687 1.523438,0.320313 1.484375,0.332031 1.441406,0.355469 1.398437,0.375 1.351563,0.390625 1.3125,0.40625 1.265625,0.417969 1.226562,0.433593 1.183598,0.441407 1.14062,0.457031 1.09766,0.464844 1.05469,0.484375 1.01562,0.492187 0.96875,0.503906 0.92578,0.511719 0.87891,0.523438 0.83203,0.53125 0.78516,0.542969 0.73828,0.550781 0.69531,0.566406 0.64844,0.574219 0.60156,0.582031 0.55469,0.597656 0.51172,0.609375 0.46484,0.621094 0.41797,0.628906 0.37109,0.640625 0.32422,0.648438 0.27734,0.65625 0.23047,0.664062 0.19141,0.671875 0.14453,0.675782 0.10547,0.683593 0.0625,0.691407 0.0195,0.6875 -0.0312,0.6875 -0.0742,0.683593 -0.11719,0.6875 -0.15234,0.695313 -0.18359,0.703125 -0.21485,0.71875 -0.24218,0.734375 -0.26563,0.757812 -0.28516,0.773438 -0.3125,0.800781 -0.34375,0.820313 -0.37109,0.832031 -0.39453,0.847656 -0.41797,0.851563 -0.4375,0.851562 -0.44922,0.855469 -0.46484,0.847656 -0.46875,0.84375 -0.48047,0.832031 -0.48047,0.824219 -0.48828,0.816406 -0.49609,0.816407 -0.50391,0.808593 -0.51563,0.804688 -0.52734,0.804687 -0.54297,0.796875 -0.55859,0.792969 -0.57031,0.792969 -0.59375,0.785156 -0.60938,0.785156 -0.625,0.777344 -0.64062,0.773437 -0.64844,0.769532 -0.65625,0.761718 -0.65625,0.757813 -0.66016,0.75 -0.652342,0.738281 -0.648438,0.734375 -0.640625,0.726563 -0.632813,0.71875 -0.628906,0.710937 -0.628906,0.707031 -0.625,0.695313 -0.621094,0.6875 -0.613281,0.679687 -0.609375,0.667969 -0.605469,0.660157 -0.597656,0.652343 -0.589844,0.644531 -0.585937,0.632813 -0.582032,0.628906 -0.574218,0.617188 -0.570313,0.609375 -0.5625,0.601562 -0.554687,0.585938 -0.542969,0.578125 -0.535156,0.570312 -0.527344,0.554688 -0.511719,0.542969 L 86,54.742188 l -0.496094,0.519531 -0.488281,0.511719 -0.480469,0.5 -0.472656,0.492187 -0.460938,0.480469 -0.449218,0.472656 -0.441406,0.457031 -0.453126,0.445313 -0.492187,0.410156 -0.527344,0.382812 -0.5625,0.359376 -0.589843,0.332031 -0.617188,0.3125 -0.640625,0.289062 -0.660156,0.269531 -0.675781,0.25 -0.6875,0.230469 -0.703126,0.21875 -0.710937,0.199219 -0.71875,0.1875 -0.71875,0.175781 -0.675781,0.160157 -0.632813,0.152343 -0.585937,0.140625 -0.542969,0.128906 -0.503906,0.121094 -0.46875,0.109375 -0.433594,0.105469 -0.398437,0.09766 -0.375,0.08594 -0.34375,0.08203 -0.320313,0.07813 -0.296875,0.07031 -0.277344,0.06641 -0.257812,0.0625 -0.238282,0.05469 -0.21875,0.05469 -0.207031,0.04687 -0.1875,0.04687 -0.179687,0.04297 -0.164063,0.03906 -0.152343,0.03516 -0.140626,0.03516 -0.132812,0.03125 -0.121094,0.03125 -0.113281,0.02344 -0.105469,0.02734 -0.09766,0.02344 -0.08984,0.01953 -0.08203,0.02344 z m 0,0"
     style="fill:none;stroke:#000000;stroke-width:2;stroke-linecap:butt;stroke-linejoin:miter;stroke-miterlimit:10;stroke-opacity:1"
     inkscape:connector-curvature="0" />
  <path
     id="path819"
     d="M 2.800781,2.800781 H 124.40234 V 124.40234 H 2.800781 Z m 0,0"
     style="fill:none;stroke:#000000;stroke-width:0.69999999;stroke-linecap:butt;stroke-linejoin:miter;stroke-miterlimit:10;stroke-opacity:1"
     inkscape:connector-curvature="0" />
  <path
     id="path821"
     d="m 6.5,64.5 h 116 m -58,58 V 6.5"
     style="fill:none;stroke:#000000;stroke-width:0.69999999;stroke-linecap:butt;stroke-linejoin:miter;stroke-miterlimit:10;stroke-opacity:1"
     inkscape:connector-curvature="0" />
  <path
     id="path823"
     d="m 6.5,64.5 h 116 m -58,58 V 6.5"
     style="fill:none;stroke:#ffffff;stroke-width:1;stroke-linecap:butt;stroke-linejoin:miter;stroke-miterlimit:10;stroke-opacity:1"
     inkscape:connector-curvature="0" />
  <path
     id="path825"
     d="m 108.47266,100.41406 -0.78125,-3.023435 -0.7461,-3.078125 -0.71484,-3.136719 -0.67969,-3.199219 -0.64453,-3.257812 -0.60547,-3.324219 -0.55859,-3.386719 -0.52344,-3.453124 -0.48047,-3.523438 -0.42969,-3.5625 -0.39062,-3.648438 -0.33984,-3.667968 -0.30079,-3.703125 -0.2539,-3.742188 -0.21094,-3.730469 -0.16797,-3.34375 -0.1289,-3.804687 -0.0898,-2.847656 -0.0586,-1.808594 -0.0391,-1.167969 -0.386724,-0.03125 -0.597656,-0.05078 -0.9375,-0.08203 -1.3125,-0.117188 L 95.496094,35.542969 93.5625,35.3125 91.34375,35.007812 88.886719,34.636719 86.242188,34.1875 83.433594,33.671875 80.53125,33.09375 l -2.992188,-0.644531 -3.027343,-0.703125 -3.035157,-0.75 -3.039062,-0.792969 -3.003906,-0.835937 -2.972656,-0.871094 -2.914063,-0.898438 -2.863281,-0.921875 -2.804688,-0.949219 -2.34375,0.496094 -2.324218,0.46875 -2.285157,0.445313 -2.242187,0.417969 -2.175782,0.394531 -2.113281,0.367187 -2.019531,0.335938 -1.921875,0.3125 -1.808594,0.285156 -1.675781,0.253906 -1.546875,0.226563 -1.390625,0.199219 -1.230469,0.175781 -1.066406,0.144531 -0.898437,0.121094 -0.71875,0.09375 -0.566407,0.07422 -0.402343,0.05469 -0.257813,0.03125 -0.164063,0.02344 0.08203,0.449218 0.125,0.699219 0.195312,1.101563 0.273438,1.519531 0.363281,1.78125 0.449219,2.117187 0.542968,2.375 0.636719,2.566406 0.730469,2.71875 0.828125,2.859376 0.921875,2.933593 1.015625,3.011719 1.101563,3.050781 1.195312,3.078125 1.277344,3.09375 1.351562,3.101563 1.429688,3.105469 1.496094,3.085937 1.5625,3.078125 1.625,3.0625 2.5625,2.492188 2.664062,2.519531 2.773438,2.546875 2.886718,2.570312 3.007813,2.589844 3.132812,2.605469 3.257813,2.605469 3.386718,2.605468 3.507813,2.593758 3.589844,2.55078 3.6875,2.51172 3.691406,2.41406 3.660156,2.30859 3.566407,2.16016 3.339843,1.96094 2.882813,1.66015 2.644531,1.45703 1.925781,1.05469 1.222656,0.66797 0.79297,0.43359 0.0234,-0.13671 0.043,-0.21875 0.0586,-0.33985 0.0937,-0.47265 0.12891,-0.59375 0.16797,-0.73047 0.21484,-0.85547 0.26953,-0.97266 0.32422,-1.07031 0.38281,-1.17188 0.4375,-1.25 0.4961,-1.32812 0.55468,-1.39063 0.60938,-1.4414 0.65234,-1.48438 0.70313,-1.52343 0.74609,-1.5586 0.78125,-1.57422 0.82031,-1.60156 0.8086,-1.53516 z m 0,0"
     style="fill:none;stroke:#ffffff;stroke-width:3;stroke-linecap:butt;stroke-linejoin:miter;stroke-miterlimit:10;stroke-opacity:1"
     inkscape:connector-curvature="0" />
</svg>
