<?xml version="1.0" encoding="UTF-8" standalone="no"?>
<svg
   xmlns:dc="http://purl.org/dc/elements/1.1/"
   xmlns:cc="http://creativecommons.org/ns#"
   xmlns:rdf="http://www.w3.org/1999/02/22-rdf-syntax-ns#"
   xmlns:svg="http://www.w3.org/2000/svg"
   xmlns="http://www.w3.org/2000/svg"
   xmlns:xlink="http://www.w3.org/1999/xlink"
   version="1.0"
   width="128"
   height="128"
   id="svg1">
  <metadata
     id="metadata12735">
    <rdf:RDF>
      <cc:Work
         rdf:about="">
        <dc:format>image/svg+xml</dc:format>
        <dc:type
           rdf:resource="http://purl.org/dc/dcmitype/StillImage" />
        <dc:title></dc:title>
      </cc:Work>
    </rdf:RDF>
  </metadata>
  <defs
     id="defs3">
    <linearGradient
       id="linearGradient2919">
      <stop
         id="stop2920"
         style="stop-color:#000000;stop-opacity:0.82352942"
         offset="0" />
      <stop
         id="stop2923"
         style="stop-color:#000000;stop-opacity:0.3137255"
         offset="0.32765517" />
      <stop
         id="stop2921"
         style="stop-color:#000000;stop-opacity:0"
         offset="1" />
    </linearGradient>
    <linearGradient
       id="linearGradient2251">
      <stop
         id="stop2252"
         style="stop-color:#000000;stop-opacity:1"
         offset="0" />
      <stop
         id="stop2253"
         style="stop-color:#d0d0d0;stop-opacity:1"
         offset="1" />
    </linearGradient>
    <linearGradient
       id="linearGradient2102">
      <stop
         id="stop2103"
         style="stop-color:#ffffff;stop-opacity:0"
         offset="0" />
      <stop
         id="stop2104"
         style="stop-color:#ffffff;stop-opacity:0.68281937"
         offset="1" />
    </linearGradient>
    <linearGradient
       id="linearGradient2091">
      <stop
         id="stop2092"
         style="stop-color:#000000;stop-opacity:0"
         offset="0" />
      <stop
         id="stop2093"
         style="stop-color:#ffffff;stop-opacity:0.17621145"
         offset="1" />
    </linearGradient>
    <linearGradient
       id="linearGradient2029">
      <stop
         id="stop2030"
         style="stop-color:#000000;stop-opacity:0.32549021"
         offset="0" />
      <stop
         id="stop2031"
         style="stop-color:#ffffff;stop-opacity:0.03524229"
         offset="1" />
    </linearGradient>
    <linearGradient
       id="linearGradient2025">
      <stop
         id="stop2026"
         style="stop-color:#ffffff;stop-opacity:0"
         offset="0" />
      <stop
         id="stop2027"
         style="stop-color:#ffffff;stop-opacity:0.29955947"
         offset="0.5642069" />
      <stop
         id="stop2028"
         style="stop-color:#ffffff;stop-opacity:0.67400879"
         offset="1" />
    </linearGradient>
    <linearGradient
       id="linearGradient1984">
      <stop
         id="stop1985"
         style="stop-color:#000000;stop-opacity:0"
         offset="0" />
      <stop
         id="stop1986"
         style="stop-color:#ffffff;stop-opacity:0.43171805"
         offset="1" />
    </linearGradient>
    <linearGradient
       id="linearGradient1981">
      <stop
         id="stop1982"
         style="stop-color:#000000;stop-opacity:0.60000002"
         offset="0" />
      <stop
         id="stop1983"
         style="stop-color:#ffffff;stop-opacity:0.64313728"
         offset="1" />
    </linearGradient>
    <marker
       refX="0"
       refY="0"
       orient="auto"
       id="CurveIn"
       style="overflow:visible">
      <path
         d="m 4.625493,-5.0456926 c -2.76,0 -5.00000002,2.24 -5.00000002,5.00000002 0,2.75999998 2.24000002,4.99999998 5.00000002,4.99999998"
         transform="scale(0.6,0.6)"
         id="path942"
         style="fill:none;fill-rule:evenodd;stroke:#000000;stroke-width:1pt;marker-start:none;marker-end:none" />
    </marker>
    <marker
       refX="0"
       refY="0"
       orient="auto"
       id="Club"
       style="overflow:visible">
      <path
         d="m -1.5971367,-7.0977635 c -1.8892507,0 -3.426382,1.5371314 -3.426382,3.4263822 0,0.6566798 0.2383531,1.2269257 0.5594092,1.7481542 -0.038751,0.032111 -0.079672,0.058463 -0.1165436,0.093235 -0.6224234,-0.8549928 -1.5893983,-1.4451409 -2.7271199,-1.4451409 -1.8892515,-1e-7 -3.426382,1.5371314 -3.426382,3.42638214 0,1.88925076 1.5371305,3.42638216 3.426382,3.42638216 0.9934462,0 1.868619,-0.4420611 2.4940326,-1.1188187 -0.124687,0.3548915 -0.2097783,0.7214874 -0.2097783,1.1188187 0,1.8892506 1.5371313,3.4263822 3.426382,3.4263822 1.88925064,0 3.4263821,-1.5371316 3.4263821,-3.4263822 0,-0.7933959 -0.3155586,-1.4938285 -0.7691878,-2.0744763 C 2.4152718,1.7663868 3.7718375,2.2973711 4.7661444,3.8340272 4.0279463,3.0958289 3.5540908,1.7534117 3.5540908,-0.05852936 l -0.6293354,-0.04661745 0.5827179,-0.0233087 c 0,-1.81194109 0.4505466,-3.15435829 1.188745,-3.89255659 -0.9590906,1.4822308 -2.2571634,2.0263625 -3.5662345,2.3075635 0.4041964,-0.5619092 0.6992616,-1.213407 0.6992616,-1.9579327 0,-1.8892506 -1.53713146,-3.4263822 -3.4263821,-3.4263822 z"
         transform="scale(0.6,0.6)"
         id="path1015"
         style="fill-rule:evenodd;stroke:#000000;stroke-width:0.74587913pt;marker-start:none" />
    </marker>
    <marker
       refX="0"
       refY="0"
       orient="auto"
       id="Torso"
       style="overflow:visible">
      <g
         transform="scale(0.7,0.7)"
         id="g2045">
        <path
           d="m -4.7792281,-3.239542 c 2.350374,0.3659393 5.30026732,1.9375477 5.03715532,3.62748546 C -0.00518779,2.0778819 -2.2126741,2.6176539 -4.5630471,2.2517169 -6.9134221,1.8857769 -8.521035,0.75201414 -8.257922,-0.93792336 -7.994809,-2.6278615 -7.1296041,-3.6054813 -4.7792281,-3.239542 Z"
           id="path1128"
           style="fill:none;fill-opacity:0.75;fill-rule:evenodd;stroke:#000000;stroke-width:1.25;marker-start:none;marker-mid:none;marker-end:none" />
        <path
           d="M 4.4598789,0.08866574 C -2.5564571,-4.378332 5.2248769,-3.9061806 -0.84829578,-8.7197331"
           id="path1909"
           style="fill:none;fill-opacity:0.75;fill-rule:evenodd;stroke:#000000;stroke-width:1pt;marker-end:none" />
        <path
           d="M 4.9298719,0.05752074 C -1.3872731,1.7494689 1.8027579,5.4782079 -4.9448731,7.5462725"
           id="path1910"
           style="fill:none;fill-opacity:0.75;fill-rule:evenodd;stroke:#000000;stroke-width:1pt;marker-start:none;marker-end:none" />
        <rect
           width="2.6366582"
           height="2.7608147"
           x="-10.391706"
           y="-1.7408575"
           transform="matrix(0.527536,-0.849533,0.887668,0.460484,0,0)"
           id="rect2035"
           style="fill-rule:evenodd;stroke-width:1pt;marker-end:none" />
        <rect
           width="2.7327356"
           height="2.8614161"
           x="4.9587269"
           y="-7.9629307"
           transform="matrix(0.671205,-0.741272,0.790802,0.612072,0,0)"
           id="rect2036"
           style="fill-rule:evenodd;stroke-width:1pt;marker-end:none" />
        <path
           d="m 16.779951,-28.685045 a 0.60731727,0.60731727 0 1 1 -1.214634,0 0.60731727,0.60731727 0 1 1 1.214634,0 z"
           transform="matrix(0,-1.109517,1.109517,0,25.96648,19.71619)"
           id="path2037"
           style="fill:#ff0000;fill-opacity:0.75;fill-rule:evenodd;stroke:#000000;stroke-width:1pt;marker-start:none;marker-end:none" />
        <path
           d="m 16.779951,-28.685045 a 0.60731727,0.60731727 0 1 1 -1.214634,0 0.60731727,0.60731727 0 1 1 1.214634,0 z"
           transform="matrix(0,-1.109517,1.109517,0,26.8245,16.99126)"
           id="path2038"
           style="fill:#ff0000;fill-opacity:0.75;fill-rule:evenodd;stroke:#000000;stroke-width:1pt;marker-start:none;marker-end:none" />
      </g>
    </marker>
    <marker
       refX="0"
       refY="0"
       orient="auto"
       id="Legs"
       style="overflow:visible">
      <g
         transform="scale(-0.7,-0.7)"
         id="g1163">
        <g
           transform="matrix(0,-1,-1,0,20.70862,21.31391)"
           id="g2032">
          <path
             d="m 21.22125,20.67536 c -6.910151,4.721157 -2.454525,6.606844 -5.841071,13.443235"
             id="path2019"
             style="fill:none;fill-opacity:0.75;fill-rule:evenodd;stroke:#000000;stroke-width:1pt;marker-start:none;marker-end:none" />
          <path
             d="m 21.39811,20.54812 c -1.360509,8.347524 3.536072,8.76994 4.505041,13.824958"
             id="path2026"
             style="fill:none;fill-opacity:0.75;fill-rule:evenodd;stroke:#000000;stroke-width:1pt;marker-start:none;marker-end:none" />
        </g>
        <path
           d="m -14.09007,-6.7318716 -0.922168,4.043383 3.962751,-1.22307 -3.040583,-2.820313 z"
           id="polygon2039"
           style="fill:#030300;fill-rule:evenodd;stroke-width:1pt;marker-end:none" />
        <path
           d="m -15.215679,4.5567534 1.874127,3.699613 2.266874,-3.472855 -4.141001,-0.226758 z"
           id="path2041"
           style="fill:#030300;fill-rule:evenodd;stroke-width:1pt;marker-end:none" />
      </g>
    </marker>
    <marker
       refX="0"
       refY="0"
       orient="auto"
       id="DistanceIn"
       style="overflow:visible">
      <g
         transform="matrix(0.6,0,0,0.6,4.8,0)"
         id="g987">
        <path
           d="M 0,0 5,-5 -12.5,0 5,5 0,0 Z"
           id="path974"
           style="fill-rule:evenodd;stroke:#000000;stroke-width:1pt;marker-start:none" />
        <path
           d="m -14.759949,-7 0,72"
           id="path976"
           style="fill:none;fill-opacity:0.75;fill-rule:evenodd;stroke:#000000;stroke-width:1.2pt;marker-start:none" />
      </g>
    </marker>
    <marker
       refX="0"
       refY="0"
       orient="auto"
       id="DistanceOut"
       style="overflow:visible">
      <g
         transform="matrix(-0.6,0,0,0.6,-4.8,0)"
         id="g990">
        <path
           d="M 0,0 5,-5 -12.5,0 5,5 0,0 Z"
           id="path991"
           style="fill-rule:evenodd;stroke:#000000;stroke-width:1pt;marker-start:none" />
        <path
           d="m -14.759949,-7 0,72"
           id="path992"
           style="fill:none;fill-opacity:0.75;fill-rule:evenodd;stroke:#000000;stroke-width:1.2pt;marker-start:none" />
      </g>
    </marker>
    <marker
       refX="0"
       refY="0"
       orient="auto"
       id="TriangleOutL"
       style="overflow:visible">
      <path
         d="m 5.77,0 -8.65,5 0,-10 8.65,5 z"
         transform="scale(0.8,0.8)"
         id="path1870"
         style="fill-rule:evenodd;stroke:#000000;stroke-width:1pt;marker-start:none" />
    </marker>
    <marker
       refX="0"
       refY="0"
       orient="auto"
       id="Arrow2L"
       style="overflow:visible">
      <path
         d="M 8.7185878,4.0337352 -2.2072895,0.01601326 8.7185884,-4.0017078 c -1.7454984,2.3720609 -1.7354408,5.6174519 -6e-7,8.035443 z"
         transform="matrix(1.1,0,0,1.1,-5.5,0)"
         id="path1916"
         style="font-size:12px;fill-rule:evenodd;stroke-width:0.625;stroke-linejoin:round" />
    </marker>
    <linearGradient
       id="linearGradient1797">
      <stop
         id="stop1798"
         style="stop-color:#00d5c7;stop-opacity:1"
         offset="0" />
      <stop
         id="stop1801"
         style="stop-color:#feff00;stop-opacity:1"
         offset="1" />
    </linearGradient>
    <linearGradient
       id="linearGradient1792">
      <stop
         id="stop1793"
         style="stop-color:#ea00ff;stop-opacity:1"
         offset="0" />
      <stop
         id="stop1794"
         style="stop-color:#ff0085;stop-opacity:1"
         offset="0.13519125" />
      <stop
         id="stop1795"
         style="stop-color:#ff0000;stop-opacity:1"
         offset="0.33846897" />
      <stop
         id="stop1796"
         style="stop-color:#feff00;stop-opacity:1"
         offset="1" />
    </linearGradient>
    <linearGradient
       id="linearGradient1787">
      <stop
         id="stop1788"
         style="stop-color:#00d5c8;stop-opacity:1"
         offset="0" />
      <stop
         id="stop1790"
         style="stop-color:#0097ff;stop-opacity:1"
         offset="0.42903447" />
      <stop
         id="stop1791"
         style="stop-color:#3c00ff;stop-opacity:1"
         offset="1" />
    </linearGradient>
    <linearGradient
       id="linearGradient1784">
      <stop
         id="stop1785"
         style="stop-color:#3c00ff;stop-opacity:1"
         offset="0" />
      <stop
         id="stop1786"
         style="stop-color:#ea00ff;stop-opacity:1"
         offset="1" />
    </linearGradient>
    <linearGradient
       id="linearGradient4167">
      <stop
         id="stop4168"
         style="stop-color:#404040;stop-opacity:0.59215689"
         offset="0" />
      <stop
         id="stop4169"
         style="stop-color:#c6c6c6;stop-opacity:0.74449337"
         offset="1" />
    </linearGradient>
    <linearGradient
       id="linearGradient4161">
      <stop
         id="stop4162"
         style="stop-color:#000000;stop-opacity:0.20704846"
         offset="0" />
      <stop
         id="stop4166"
         style="stop-color:#ffffff;stop-opacity:0.06167401"
         offset="0.64531034" />
      <stop
         id="stop4163"
         style="stop-color:#ffffff;stop-opacity:0.83529413"
         offset="1" />
    </linearGradient>
    <linearGradient
       id="linearGradient4149">
      <stop
         id="stop4150"
         style="stop-color:#5c5c16;stop-opacity:0.61674011"
         offset="0" />
      <stop
         id="stop4151"
         style="stop-color:#6a650b;stop-opacity:0.84313726"
         offset="1" />
    </linearGradient>
    <linearGradient
       id="linearGradient4145">
      <stop
         id="stop4146"
         style="stop-color:#e4d526;stop-opacity:0.39207047"
         offset="0" />
      <stop
         id="stop4147"
         style="stop-color:#89854f;stop-opacity:0.56862748"
         offset="1" />
    </linearGradient>
    <linearGradient
       id="linearGradient4132">
      <stop
         id="stop4133"
         style="stop-color:#000000;stop-opacity:0.1277533"
         offset="0" />
      <stop
         id="stop4134"
         style="stop-color:#fffbab;stop-opacity:0.17621145"
         offset="1" />
    </linearGradient>
    <linearGradient
       id="linearGradient4124">
      <stop
         id="stop4125"
         style="stop-color:#3a3a3a;stop-opacity:1"
         offset="0" />
      <stop
         id="stop4129"
         style="stop-color:#979797;stop-opacity:1"
         offset="1" />
    </linearGradient>
    <marker
       refX="0"
       refY="0"
       orient="auto"
       id="Tail"
       style="overflow:visible">
      <g
         transform="scale(-1.2,-1.2)"
         id="g1087">
        <path
           d="M -3.8048674,-3.9585227 0.54352094,-6.8114835e-4"
           id="path1126"
           style="fill:none;fill-rule:evenodd;stroke:#000000;stroke-width:0.80000001;stroke-linecap:round;marker-start:none;marker-end:none" />
        <path
           d="M -1.2866832,-3.9585227 3.0617053,-6.8114835e-4"
           id="path1127"
           style="fill:none;fill-rule:evenodd;stroke:#000000;stroke-width:0.80000001;stroke-linecap:round;marker-start:none;marker-end:none" />
        <path
           d="M 1.3053582,-3.9585227 5.6537466,-6.8114835e-4"
           id="path1764"
           style="fill:none;fill-rule:evenodd;stroke:#000000;stroke-width:0.80000001;stroke-linecap:round;marker-start:none;marker-end:none" />
        <path
           d="M -3.8048674,4.1775838 0.54352094,0.21974226"
           id="path1848"
           style="fill:none;fill-rule:evenodd;stroke:#000000;stroke-width:0.80000001;stroke-linecap:round;marker-start:none;marker-end:none" />
        <path
           d="M -1.2866832,4.1775838 3.0617053,0.21974226"
           id="path1849"
           style="fill:none;fill-rule:evenodd;stroke:#000000;stroke-width:0.80000001;stroke-linecap:round;marker-start:none;marker-end:none" />
        <path
           d="M 1.3053582,4.1775838 5.6537466,0.21974226"
           id="path1850"
           style="fill:none;fill-rule:evenodd;stroke:#000000;stroke-width:0.80000001;stroke-linecap:round;marker-start:none;marker-end:none" />
      </g>
    </marker>
    <marker
       refX="0"
       refY="0"
       orient="auto"
       id="Arrow1S"
       style="overflow:visible">
      <path
         d="M 0,0 5,-5 -12.5,0 5,5 0,0 Z"
         transform="scale(0.2,0.2)"
         id="path983"
         style="fill-rule:evenodd;stroke:#000000;stroke-width:1pt;marker-start:none" />
    </marker>
    <marker
       refX="0"
       refY="0"
       orient="auto"
       id="Arrow1M"
       style="overflow:visible">
      <path
         d="M 0,0 5,-5 -12.5,0 5,5 0,0 Z"
         transform="scale(0.4,0.4)"
         id="path1777"
         style="fill-rule:evenodd;stroke:#000000;stroke-width:1pt;marker-start:none" />
    </marker>
    <marker
       refX="0"
       refY="0"
       orient="auto"
       id="Arrow1L"
       style="overflow:visible">
      <path
         d="M 0,0 5,-5 -12.5,0 5,5 0,0 Z"
         transform="scale(0.8,0.8)"
         id="path1779"
         style="fill-rule:evenodd;stroke:#000000;stroke-width:1pt;marker-start:none" />
    </marker>
    <linearGradient
       id="linearGradient1673">
      <stop
         id="stop1674"
         style="stop-color:#000000;stop-opacity:0.30588236"
         offset="0" />
      <stop
         id="stop1675"
         style="stop-color:#fffbab;stop-opacity:0.73127753"
         offset="1" />
    </linearGradient>
    <linearGradient
       id="linearGradient1651">
      <stop
         id="stop1652"
         style="stop-color:#fffc00;stop-opacity:1"
         offset="0" />
      <stop
         id="stop1662"
         style="stop-color:#818181;stop-opacity:1"
         offset="0.5" />
      <stop
         id="stop1666"
         style="stop-color:#555b94;stop-opacity:1"
         offset="0.625" />
      <stop
         id="stop1664"
         style="stop-color:#4040c0;stop-opacity:1"
         offset="0.75" />
      <stop
         id="stop1653"
         style="stop-color:#3c00ff;stop-opacity:1"
         offset="1" />
    </linearGradient>
    <linearGradient
       id="linearGradient1647">
      <stop
         id="stop1648"
         style="stop-color:#000000;stop-opacity:0.60000002"
         offset="0" />
      <stop
         id="stop1649"
         style="stop-color:#ffffff;stop-opacity:0.64313728"
         offset="1" />
    </linearGradient>
    <linearGradient
       id="linearGradient1850">
      <stop
         id="stop1851"
         style="stop-color:#a2ff00;stop-opacity:1"
         offset="0" />
      <stop
         id="stop1853"
         style="stop-color:#00d4c7;stop-opacity:1"
         offset="0.23303448" />
      <stop
         id="stop1854"
         style="stop-color:#0097ff;stop-opacity:1"
         offset="0.67575932" />
      <stop
         id="stop1852"
         style="stop-color:#0006ff;stop-opacity:1"
         offset="1" />
    </linearGradient>
    <linearGradient
       id="linearGradient1845">
      <stop
         id="stop1846"
         style="stop-color:#0009ff;stop-opacity:1"
         offset="0" />
      <stop
         id="stop1848"
         style="stop-color:#ea00ff;stop-opacity:1"
         offset="1" />
    </linearGradient>
    <linearGradient
       id="linearGradient1775">
      <stop
         id="stop1776"
         style="stop-color:#fffae8;stop-opacity:0.17180617"
         offset="0" />
      <stop
         id="stop1777"
         style="stop-color:#325ab8;stop-opacity:0.55947137"
         offset="1" />
    </linearGradient>
    <linearGradient
       id="linearGradient1772">
      <stop
         id="stop1773"
         style="stop-color:#c8f2fb;stop-opacity:0.29019609"
         offset="0" />
      <stop
         id="stop1774"
         style="stop-color:#000102;stop-opacity:0.03964758"
         offset="1" />
    </linearGradient>
    <linearGradient
       id="linearGradient1768">
      <stop
         id="stop1769"
         style="stop-color:#cee3fb;stop-opacity:0.85490197"
         offset="0" />
      <stop
         id="stop1770"
         style="stop-color:#5c93c9;stop-opacity:0.03921569"
         offset="1" />
    </linearGradient>
    <linearGradient
       id="linearGradient1739">
      <stop
         id="stop1740"
         style="stop-color:#57595a;stop-opacity:1"
         offset="0" />
      <stop
         id="stop1741"
         style="stop-color:#0cbad7;stop-opacity:0.19383261"
         offset="1" />
    </linearGradient>
    <linearGradient
       id="linearGradient1713">
      <stop
         id="stop1714"
         style="stop-color:#5d5739;stop-opacity:0.59911895"
         offset="0" />
      <stop
         id="stop1715"
         style="stop-color:#d7c80c;stop-opacity:0.1585903"
         offset="1" />
    </linearGradient>
    <linearGradient
       id="linearGradient1709">
      <stop
         id="stop1710"
         style="stop-color:#ea00ff;stop-opacity:1"
         offset="0" />
      <stop
         id="stop1855"
         style="stop-color:#ff0085;stop-opacity:1"
         offset="0.09565717" />
      <stop
         id="stop1780"
         style="stop-color:#ff0000;stop-opacity:1"
         offset="0.33846897" />
      <stop
         id="stop1711"
         style="stop-color:#feff00;stop-opacity:1"
         offset="1" />
    </linearGradient>
    <linearGradient
       id="linearGradient1705">
      <stop
         id="stop1706"
         style="stop-color:#e3e2ac;stop-opacity:1"
         offset="0" />
      <stop
         id="stop1736"
         style="stop-color:#e9e8b7;stop-opacity:0.95294118"
         offset="0.5" />
      <stop
         id="stop1707"
         style="stop-color:#f0efc2;stop-opacity:0.90588236"
         offset="1" />
    </linearGradient>
    <radialGradient
       cx="249.76877"
       cy="753.06787"
       r="345.01355"
       fx="252.92682"
       fy="750.94794"
       id="radialGradient1969"
       xlink:href="#linearGradient2025"
       gradientUnits="userSpaceOnUse"
       spreadMethod="pad"
       gradientTransform="scale(1.1754075,0.85076881)" />
    <linearGradient
       x1="487.03067"
       y1="605.97003"
       x2="95.579491"
       y2="661.33209"
       id="linearGradient2033"
       xlink:href="#linearGradient2029"
       spreadMethod="pad"
       gradientTransform="scale(1.1556876,0.86528577)"
       gradientUnits="userSpaceOnUse" />
    <linearGradient
       x1="199.88042"
       y1="741.04291"
       x2="-92.16201"
       y2="831.52612"
       id="linearGradient2106"
       xlink:href="#linearGradient2102"
       gradientTransform="scale(1.155687,0.86528621)"
       gradientUnits="userSpaceOnUse" />
    <linearGradient
       x1="2438.1489"
       y1="-114.34927"
       x2="2611.3352"
       y2="-114.34927"
       id="linearGradient1858"
       xlink:href="#linearGradient2919"
       gradientTransform="scale(0.33289043,3.0039914)"
       gradientUnits="userSpaceOnUse" />
    <radialGradient
       cx="681.2431"
       cy="719.17896"
       r="50.992435"
       fx="681.56183"
       fy="718.94183"
       id="radialGradient1861"
       xlink:href="#linearGradient2919"
       gradientTransform="scale(0.8860685,1.1285809)"
       gradientUnits="userSpaceOnUse" />
    <linearGradient
       x1="1750.4377"
       y1="214.13252"
       x2="1881.9615"
       y2="214.13252"
       id="linearGradient2922"
       xlink:href="#linearGradient2919"
       gradientTransform="scale(0.34484519,2.8998519)"
       gradientUnits="userSpaceOnUse" />
    <clipPath
       id="clipPath15134"
       clipPathUnits="userSpaceOnUse">
      <path
         style="fill:none;fill-rule:evenodd;stroke:#000000;stroke-width:0.66360509px;stroke-linecap:butt;stroke-linejoin:miter;stroke-opacity:1"
         d="m 179.69849,-18.097207 c -39.54,-41.393433 -54.52196,-53.131871 -65.79704,-61.781253 -11.27508,-8.649381 -16.989854,-11.583989 -22.241242,-12.819614 -5.25141,-1.23562 -7.72266,-0.154455 -9.26718,1.235625 -1.54454,1.39008 -7.41376,8.031566 -8.18602,23.631341 -0.77227,15.599756 1.69899,32.126243 5.56031,45.25476 3.86133,13.1285221 14.209678,34.90641 18.688818,40.77562 4.479144,5.869231 5.251414,4.324701 5.251414,4.324701 0,0 2.93461,-4.170241 15.29086,-12.201811 12.35626,-8.0315479 25.0214,-15.2908479 36.14204,-19.7699879 11.12061,-4.4791401 24.55804,-8.6493811 24.55804,-8.6493811 z"
         id="path15136" />
    </clipPath>
    <filter
       height="1.571588"
       y="-0.28579402"
       width="1.4318668"
       x="-0.2159334"
       id="filter14802"
       style="color-interpolation-filters:sRGB">
      <feGaussianBlur
         id="feGaussianBlur14804"
         stdDeviation="10.41207" />
    </filter>
    <filter
       height="1.6047848"
       y="-0.30239242"
       width="1.4012105"
       x="-0.2006053"
       id="filter14270"
       style="color-interpolation-filters:sRGB">
      <feGaussianBlur
         id="feGaussianBlur14272"
         stdDeviation="12.535315" />
    </filter>
    <filter
       height="1.5516146"
       y="-0.27580729"
       width="1.552386"
       x="-0.27619299"
       id="filter14566"
       style="color-interpolation-filters:sRGB">
      <feGaussianBlur
         id="feGaussianBlur14568"
         stdDeviation="10.048233" />
    </filter>
    <filter
       height="1.6770401"
       y="-0.33852005"
       width="1.6125817"
       x="-0.30629084"
       id="filter14322"
       style="color-interpolation-filters:sRGB">
      <feGaussianBlur
         id="feGaussianBlur14324"
         stdDeviation="11.008424" />
    </filter>
    <filter
       height="1.8347658"
       y="-0.41738287"
       width="1.8119503"
       x="-0.40597516"
       id="filter15122"
       style="color-interpolation-filters:sRGB">
      <feGaussianBlur
         id="feGaussianBlur15124"
         stdDeviation="14.589042" />
    </filter>
    <filter
       height="1.6064001"
       y="-0.30320004"
       width="1.8367747"
       x="-0.41838735"
       id="filter15030"
       style="color-interpolation-filters:sRGB">
      <feGaussianBlur
         id="feGaussianBlur15032"
         stdDeviation="15.037294" />
    </filter>
    <filter
       height="2.9895706"
       y="-0.99478531"
       width="2.9422002"
       x="-0.97110003"
       id="filter17690"
       style="color-interpolation-filters:sRGB">
      <feGaussianBlur
         id="feGaussianBlur17692"
         stdDeviation="11.959164" />
    </filter>
    <filter
       style="color-interpolation-filters:sRGB"
       id="filter4453"
       x="-0.03433419"
       width="1.0686684"
       y="-0.14071825"
       height="1.2814364">
      <feGaussianBlur
         stdDeviation="1.7745653"
         id="feGaussianBlur4455" />
    </filter>
    <clipPath
       clipPathUnits="userSpaceOnUse"
       id="clipPath15134-9">
      <path
         id="path15136-7"
         d="m 179.69849,-18.097207 c -39.54,-41.393433 -54.52196,-53.131871 -65.79704,-61.781253 -11.27508,-8.649381 -16.989854,-11.583989 -22.241242,-12.819614 -5.25141,-1.23562 -7.72266,-0.154455 -9.26718,1.235625 -1.54454,1.39008 -7.41376,8.031566 -8.18602,23.631341 -0.77227,15.599756 1.69899,32.126243 5.56031,45.25476 3.86133,13.1285221 14.209678,34.90641 18.688818,40.77562 4.479144,5.869231 5.251414,4.324701 5.251414,4.324701 0,0 2.93461,-4.170241 15.29086,-12.201811 12.35626,-8.0315479 25.0214,-15.2908479 36.14204,-19.7699879 11.12061,-4.4791401 24.55804,-8.6493811 24.55804,-8.6493811 z"
         style="fill:none;fill-rule:evenodd;stroke:#000000;stroke-width:0.66360509px;stroke-linecap:butt;stroke-linejoin:miter;stroke-opacity:1" />
    </clipPath>
    <filter
       style="color-interpolation-filters:sRGB"
       id="filter14802-7"
       x="-0.2159334"
       width="1.4318668"
       y="-0.28579402"
       height="1.571588">
      <feGaussianBlur
         stdDeviation="10.41207"
         id="feGaussianBlur14804-4" />
    </filter>
    <filter
       style="color-interpolation-filters:sRGB"
       id="filter14270-5"
       x="-0.2006053"
       width="1.4012105"
       y="-0.30239242"
       height="1.6047848">
      <feGaussianBlur
         stdDeviation="12.535315"
         id="feGaussianBlur14272-1" />
    </filter>
    <filter
       style="color-interpolation-filters:sRGB"
       id="filter14566-5"
       x="-0.27619299"
       width="1.552386"
       y="-0.27580729"
       height="1.5516146">
      <feGaussianBlur
         stdDeviation="10.048233"
         id="feGaussianBlur14568-7" />
    </filter>
    <filter
       style="color-interpolation-filters:sRGB"
       id="filter14322-9"
       x="-0.30629084"
       width="1.6125817"
       y="-0.33852005"
       height="1.6770401">
      <feGaussianBlur
         stdDeviation="11.008424"
         id="feGaussianBlur14324-7" />
    </filter>
    <filter
       style="color-interpolation-filters:sRGB"
       id="filter15122-3"
       x="-0.40597516"
       width="1.8119503"
       y="-0.41738287"
       height="1.8347658">
      <feGaussianBlur
         stdDeviation="14.589042"
         id="feGaussianBlur15124-6" />
    </filter>
    <filter
       style="color-interpolation-filters:sRGB"
       id="filter15030-7"
       x="-0.41838735"
       width="1.8367747"
       y="-0.30320004"
       height="1.6064001">
      <feGaussianBlur
         stdDeviation="15.037294"
         id="feGaussianBlur15032-4" />
    </filter>
    <filter
       style="color-interpolation-filters:sRGB"
       id="filter17690-1"
       x="-0.97110003"
       width="2.9422002"
       y="-0.99478531"
       height="2.9895706">
      <feGaussianBlur
         stdDeviation="11.959164"
         id="feGaussianBlur17692-7" />
    </filter>
    <clipPath
       clipPathUnits="userSpaceOnUse"
       id="clipPath15134-9-1">
      <path
         id="path15136-7-8"
         d="m 179.69849,-18.097207 c -39.54,-41.393433 -54.52196,-53.131871 -65.79704,-61.781253 -11.27508,-8.649381 -16.989854,-11.583989 -22.241242,-12.819614 -5.25141,-1.23562 -7.72266,-0.154455 -9.26718,1.235625 -1.54454,1.39008 -7.41376,8.031566 -8.18602,23.631341 -0.77227,15.599756 1.69899,32.126243 5.56031,45.25476 3.86133,13.1285221 14.209678,34.90641 18.688818,40.77562 4.479144,5.869231 5.251414,4.324701 5.251414,4.324701 0,0 2.93461,-4.170241 15.29086,-12.201811 12.35626,-8.0315479 25.0214,-15.2908479 36.14204,-19.7699879 11.12061,-4.4791401 24.55804,-8.6493811 24.55804,-8.6493811 z"
         style="fill:none;fill-rule:evenodd;stroke:#000000;stroke-width:0.66360509px;stroke-linecap:butt;stroke-linejoin:miter;stroke-opacity:1" />
    </clipPath>
    <filter
       style="color-interpolation-filters:sRGB"
       id="filter14802-7-8"
       x="-0.2159334"
       width="1.4318668"
       y="-0.28579402"
       height="1.571588">
      <feGaussianBlur
         stdDeviation="10.41207"
         id="feGaussianBlur14804-4-9" />
    </filter>
    <filter
       style="color-interpolation-filters:sRGB"
       id="filter14270-5-4"
       x="-0.2006053"
       width="1.4012105"
       y="-0.30239242"
       height="1.6047848">
      <feGaussianBlur
         stdDeviation="12.535315"
         id="feGaussianBlur14272-1-7" />
    </filter>
    <filter
       style="color-interpolation-filters:sRGB"
       id="filter14566-5-1"
       x="-0.27619299"
       width="1.552386"
       y="-0.27580729"
       height="1.5516146">
      <feGaussianBlur
         stdDeviation="10.048233"
         id="feGaussianBlur14568-7-1" />
    </filter>
    <filter
       style="color-interpolation-filters:sRGB"
       id="filter14322-9-8"
       x="-0.30629084"
       width="1.6125817"
       y="-0.33852005"
       height="1.6770401">
      <feGaussianBlur
         stdDeviation="11.008424"
         id="feGaussianBlur14324-7-4" />
    </filter>
    <filter
       style="color-interpolation-filters:sRGB"
       id="filter15122-3-0"
       x="-0.40597516"
       width="1.8119503"
       y="-0.41738287"
       height="1.8347658">
      <feGaussianBlur
         stdDeviation="14.589042"
         id="feGaussianBlur15124-6-4" />
    </filter>
    <filter
       style="color-interpolation-filters:sRGB"
       id="filter15030-7-3"
       x="-0.41838735"
       width="1.8367747"
       y="-0.30320004"
       height="1.6064001">
      <feGaussianBlur
         stdDeviation="15.037294"
         id="feGaussianBlur15032-4-0" />
    </filter>
    <filter
       style="color-interpolation-filters:sRGB"
       id="filter17690-1-5"
       x="-0.97110003"
       width="2.9422002"
       y="-0.99478531"
       height="2.9895706">
      <feGaussianBlur
         stdDeviation="11.959164"
         id="feGaussianBlur17692-7-6" />
    </filter>
  </defs>
  <path
     id="path5658-4-3-6-5-1-0-7-3"
     d="M 58.923632,0.46192897 C 30.799608,0.05885982 6.993812,28.855784 12.766804,56.432089 c 3.099249,18.17761 17.926277,33.673645 35.542722,38.131218 -5.333493,8.728703 -13.828245,18.190023 -12.11875,29.100813 3.696211,7.80016 17.34603,1.94688 14.130891,-6.23279 -1.161849,-5.58414 4.433203,-9.96202 6.549022,-14.76335 2.476871,-3.651125 4.621974,-8.20513 9.772527,-7.23249 C 93.026165,92.10507 112.97258,63.930818 106.45759,37.932635 101.85197,16.411476 81.081912,-0.43718338 58.923632,0.46192897 Z M 59.52804,14.15418 c 13.064541,-0.754282 26.795345,8.720346 30.804372,20.231068 -5.79845,0.852597 -15.211344,6.942225 -9.81588,13.312263 -2.13099,4.740892 -6.392928,11.992704 -9.382341,15.013275 C 70.56644,54.081967 70.21261,43.37178 63.197838,37.351179 c -6.272401,-2.563347 -9.850251,5.091909 -13.434674,8.688674 -2.635815,3.933653 1.115552,8.634994 5.233097,8.250033 2.386112,8.72038 4.336993,19.117205 1.420484,27.517111 C 37.221301,80.918416 22.917863,60.893562 26.260135,42.558773 28.442563,26.590643 43.559192,14.129636 59.52804,14.15418 Z M 93.742086,51.331606 C 92.527194,63.416438 84.524414,74.516058 73.3376,79.310309 80.399374,69.970563 88.055295,60.983181 93.795642,50.727198 l -0.05356,0.604408 z"
     style="color:#000000;clip-rule:nonzero;display:inline;overflow:visible;visibility:visible;opacity:1;isolation:auto;mix-blend-mode:normal;color-interpolation:sRGB;color-interpolation-filters:linearRGB;solid-color:#000000;solid-opacity:1;fill:#ffffff;fill-opacity:1;fill-rule:nonzero;stroke:none;stroke-width:4.76998568;stroke-linecap:round;stroke-linejoin:miter;stroke-miterlimit:4;stroke-dasharray:none;stroke-dashoffset:0;stroke-opacity:1;color-rendering:auto;image-rendering:auto;shape-rendering:auto;text-rendering:auto;enable-background:accumulate" />
  <path
     id="path5658-4-3-6-8-9"
     d="M 60.736629,7.1540346 A 40.943721,40.943721 0 0 1 100.84926,48.514367 40.943721,40.943721 0 0 1 59.886666,89.033088 40.943721,40.943721 0 0 1 18.965817,48.472208 40.943721,40.943721 0 0 1 59.121017,7.1532026"
     style="color:#000000;clip-rule:nonzero;display:inline;overflow:visible;visibility:visible;opacity:1;isolation:auto;mix-blend-mode:normal;color-interpolation:sRGB;color-interpolation-filters:linearRGB;solid-color:#000000;solid-opacity:1;fill:#cbe3f8;fill-opacity:1;fill-rule:nonzero;stroke:none;stroke-width:4.5690918;stroke-linecap:round;stroke-linejoin:miter;stroke-miterlimit:4;stroke-dasharray:none;stroke-dashoffset:0;stroke-opacity:1;color-rendering:auto;image-rendering:auto;shape-rendering:auto;text-rendering:auto;enable-background:accumulate" />
  <text
     id="text5704"
     y="-226.77486"
     x="441.1265"
     style="font-style:normal;font-weight:normal;font-size:180px;line-height:125%;font-family:sans-serif;letter-spacing:0px;word-spacing:0px;fill:#000000;fill-opacity:1;stroke:none;stroke-width:1px;stroke-linecap:butt;stroke-linejoin:miter;stroke-opacity:1"
     xml:space="preserve"><tspan
       y="-226.77486"
       x="441.1265"
       id="tspan5706" /></text>
  <path
     id="path5658-4-3-6-5-1-0-0"
     d="m 59.120891,4.9766547 -0.148818,0.00252 A 43.179228,43.179228 0 0 0 16.630088,48.943132 43.179228,43.179228 0 0 0 56.053413,91.119555 c -0.229511,0.315305 -0.312044,0.436918 -0.558063,0.773846 -3.508898,4.912455 -6.939566,10.214409 -10.292514,15.906619 -3.352947,5.77019 -5.029993,10.05807 -5.029993,12.86518 0,1.48154 0.623759,2.22294 1.871366,2.22294 0.935707,0 1.871343,-0.31189 2.807048,-0.93569 0.935707,-0.6238 1.404457,-1.36522 1.404457,-2.22293 0,-0.23394 -0.15687,-0.74004 -0.468773,-1.5198 -0.311902,-0.70178 -0.466911,-1.40397 -0.466911,-2.10575 0,-3.74712 4.733807,-12.05321 14.07989,-24.800252 a 43.179228,43.179228 0 0 0 1.157049,0.02051 A 43.179228,43.179228 0 0 0 102.97522,47.432681 43.179228,43.179228 0 0 0 59.120891,4.9772206 Z m 0.07255,4.6635425 A 38.515864,38.515864 0 0 1 98.311685,47.510248 38.515864,38.515864 0 0 1 62.731546,86.54106 c 1.177448,-1.741598 2.490741,-3.699098 3.874806,-6.110769 4.132703,-4.83448 9.591514,-11.968487 16.375384,-21.403517 6.861845,-9.435042 10.292514,-15.713691 10.292514,-18.832706 0,-0.467875 -0.115792,-0.895534 -0.349721,-1.285399 -0.155949,-0.07797 -0.42861,-0.117136 -0.818488,-0.117136 -1.403559,0 -3.237477,0.623745 -5.498766,1.871362 -2.261289,1.247603 -3.391153,2.377462 -3.391153,3.391146 0.233925,0.389877 0.545805,0.585963 0.935683,0.585963 0.233926,0 0.545805,-0.07846 0.935684,-0.234384 0.389877,-0.155922 0.662538,-0.234374 0.818489,-0.234374 0.389877,0 0.584104,0.233428 0.584104,0.701289 0,2.261276 -2.728476,7.525874 -8.186762,15.791272 -5.380309,8.265411 -8.967847,12.39827 -10.761285,12.39827 -0.623804,0 -0.935683,-0.623746 -0.935683,-1.871362 l 0,-2.807049 c 0.07797,-1.247604 0.117189,-2.183242 0.117189,-2.807049 0,-6.160056 -0.662976,-11.736533 -1.988561,-16.726959 -1.247607,-5.068411 -2.689351,-7.602666 -4.326835,-7.602666 -0.545829,0 -1.363814,0.780638 -2.455471,2.340144 -1.091656,1.559508 -1.754632,2.416719 -1.988559,2.572664 -1.715461,1.247604 -2.574523,2.183231 -2.574523,2.807037 0,0.389879 0.156869,0.585977 0.46877,0.585977 l 0.701298,-0.11715 0.935683,0 c 2.105338,0 3.743168,2.416596 4.912802,7.251077 1.247607,4.83448 1.871365,10.448321 1.871365,16.842297 0,4.444604 -0.42953,7.953716 -1.287261,10.526896 -0.04155,0.166237 -0.661992,1.092235 -1.700228,2.565224 A 38.515864,38.515864 0 0 1 21.291763,48.857043 38.515864,38.515864 0 0 1 59.061362,9.6420517 l 0.132074,-0.00252 z"
     style="color:#000000;clip-rule:nonzero;display:inline;overflow:visible;visibility:visible;opacity:1;isolation:auto;mix-blend-mode:normal;color-interpolation:sRGB;color-interpolation-filters:linearRGB;solid-color:#000000;solid-opacity:1;fill:#000000;fill-opacity:1;fill-rule:nonzero;stroke:none;stroke-width:4.76998568;stroke-linecap:round;stroke-linejoin:miter;stroke-miterlimit:4;stroke-dasharray:none;stroke-dashoffset:0;stroke-opacity:1;color-rendering:auto;image-rendering:auto;shape-rendering:auto;text-rendering:auto;enable-background:accumulate" />
</svg>
