<?xml version="1.0" encoding="UTF-8" standalone="no"?>
<svg
   xmlns:dc="http://purl.org/dc/elements/1.1/"
   xmlns:cc="http://creativecommons.org/ns#"
   xmlns:rdf="http://www.w3.org/1999/02/22-rdf-syntax-ns#"
   xmlns:svg="http://www.w3.org/2000/svg"
   xmlns="http://www.w3.org/2000/svg"
   xmlns:xlink="http://www.w3.org/1999/xlink"
   version="1.0"
   id="svg2606"
   height="128"
   width="128">
  <defs
     id="defs2608">
    <linearGradient
       id="linearGradient4778">
      <stop
         style="stop-color:#000000;stop-opacity:1;"
         offset="0"
         id="stop4780" />
      <stop
         style="stop-color:#000000;stop-opacity:0;"
         offset="1"
         id="stop4782" />
    </linearGradient>
    <filter
       id="filter4794">
      <feGaussianBlur
         stdDeviation="1.6571087"
         id="feGaussianBlur4796" />
    </filter>
    <linearGradient
       xlink:href="#linearGradient4778"
       id="linearGradient7460"
       gradientUnits="userSpaceOnUse"
       x1="256.81406"
       y1="120.49628"
       x2="288.85443"
       y2="70.646294" />
    <filter
       style="color-interpolation-filters:sRGB"
       id="filter14270"
       x="-0.20060531"
       width="1.4012106"
       y="-0.30239243"
       height="1.6047849">
      <feGaussianBlur
         stdDeviation="12.535315"
         id="feGaussianBlur14272" />
    </filter>
    <filter
       style="color-interpolation-filters:sRGB"
       id="filter14322"
       x="-0.30629084"
       width="1.6125817"
       y="-0.33852005"
       height="1.6770401">
      <feGaussianBlur
         stdDeviation="11.008424"
         id="feGaussianBlur14324" />
    </filter>
    <filter
       style="color-interpolation-filters:sRGB"
       id="filter14566"
       x="-0.27619299"
       width="1.552386"
       y="-0.27580728"
       height="1.5516146">
      <feGaussianBlur
         stdDeviation="10.048233"
         id="feGaussianBlur14568" />
    </filter>
    <filter
       style="color-interpolation-filters:sRGB"
       id="filter14802"
       x="-0.21593339"
       width="1.4318668"
       y="-0.28579401"
       height="1.571588">
      <feGaussianBlur
         stdDeviation="10.41207"
         id="feGaussianBlur14804" />
    </filter>
    <filter
       style="color-interpolation-filters:sRGB"
       id="filter15030"
       x="-0.41838735"
       width="1.8367747"
       y="-0.30320005"
       height="1.6064001">
      <feGaussianBlur
         stdDeviation="15.037294"
         id="feGaussianBlur15032" />
    </filter>
    <filter
       style="color-interpolation-filters:sRGB"
       id="filter15122"
       x="-0.40597517"
       width="1.8119503"
       y="-0.41738288"
       height="1.8347658">
      <feGaussianBlur
         stdDeviation="14.589042"
         id="feGaussianBlur15124" />
    </filter>
    <clipPath
       clipPathUnits="userSpaceOnUse"
       id="clipPath15134">
      <path
         id="path15136"
         d="m 179.69849,-18.097207 c -39.54,-41.393433 -54.52196,-53.131871 -65.79704,-61.781253 -11.27508,-8.649381 -16.989854,-11.583989 -22.241242,-12.819614 -5.25141,-1.23562 -7.72266,-0.154455 -9.26718,1.235625 -1.54454,1.39008 -7.41376,8.031566 -8.18602,23.631341 -0.77227,15.599756 1.69899,32.126243 5.56031,45.25476 3.86133,13.1285221 14.209678,34.90641 18.688818,40.77562 4.479144,5.869231 5.251414,4.324701 5.251414,4.324701 0,0 2.93461,-4.170241 15.29086,-12.201811 12.35626,-8.0315479 25.0214,-15.2908479 36.14204,-19.7699879 11.12061,-4.4791401 24.55804,-8.6493811 24.55804,-8.6493811 z"
         style="fill:none;fill-rule:evenodd;stroke:#000000;stroke-width:0.66360509px;stroke-linecap:butt;stroke-linejoin:miter;stroke-opacity:1" />
    </clipPath>
    <filter
       style="color-interpolation-filters:sRGB"
       id="filter17690"
       x="-0.97110006"
       width="2.9422001"
       y="-0.9947853"
       height="2.9895706">
      <feGaussianBlur
         stdDeviation="11.959164"
         id="feGaussianBlur17692" />
    </filter>
    <filter
       height="1.2814364"
       y="-0.14071825"
       width="1.0686684"
       x="-0.03433419"
       id="filter4453"
       style="color-interpolation-filters:sRGB">
      <feGaussianBlur
         id="feGaussianBlur4455"
         stdDeviation="1.7745653" />
    </filter>
  </defs>
  <metadata
     id="metadata2611">
    <rdf:RDF>
      <cc:Work
         rdf:about="">
        <dc:format>image/svg+xml</dc:format>
        <dc:type
           rdf:resource="http://purl.org/dc/dcmitype/StillImage" />
        <dc:title></dc:title>
      </cc:Work>
    </rdf:RDF>
  </metadata>
  <path
     id="path2197"
     d=""
     style="fill:#000000" />
  <g
     transform="translate(1042.0419,-279.83386)"
     display="none"
     id="Frame_copy"
     style="display:none">
    <g
       id="g3978"
       display="inline"
       style="display:inline">
      <g
         id="g3982">
        <circle
           id="circle3984"
           r="275.909"
           cy="278.93399"
           cx="279.51501" />
      </g>
    </g>
    <g
       display="inline"
       id="Frame_copy_1_"
       style="display:inline" />
  </g>
  <g
     transform="translate(1042.0419,-279.83386)"
     display="none"
     id="Frame_copy_2"
     style="display:none">
    <circle
       id="circle3988"
       r="275.909"
       cy="278.93399"
       cx="279.51501"
       display="inline"
       style="display:inline;fill:#ffffff" />
    <g
       display="inline"
       id="Frame_copy_2_1_"
       style="display:inline" />
  </g>
  <g
     transform="matrix(0.333692,0,0,0.333692,-610.81394,-151.23635)"
     id="Foreground_Grid_1_" />
  <g
     transform="matrix(0.6433923,0,0,0.6433923,563.19164,120.38376)"
     style="display:inline"
     id="layer4" />
  <g
     transform="matrix(0.6433923,0,0,0.6433923,563.19164,120.38376)"
     style="display:inline"
     id="layer5" />
  <rect
     y="130.76021"
     x="563.78369"
     height="0"
     width="0.64339232"
     id="rect1327"
     style="opacity:0.57786889;fill:#ffffff;fill-opacity:1;fill-rule:nonzero;stroke:none" />
  <g
     transform="matrix(0.96064557,0,0,0.96064557,-6.0097302,6.4094048)"
     id="g4316">
    <g
       id="g17694"
       transform="matrix(1.0161809,0,0,1.0161809,-65.620163,96.857512)">
      <g
         clip-path="url(#clipPath15134)"
         id="g15126">
        <path
           style="color:#000000;clip-rule:nonzero;display:inline;overflow:visible;visibility:visible;opacity:1;isolation:auto;mix-blend-mode:normal;color-interpolation:sRGB;color-interpolation-filters:linearRGB;solid-color:#000000;solid-opacity:1;fill:#0000ff;fill-opacity:1;fill-rule:nonzero;stroke:none;stroke-width:12;stroke-linecap:round;stroke-linejoin:miter;stroke-miterlimit:4;stroke-dasharray:none;stroke-dashoffset:0;stroke-opacity:1;filter:url(#filter14802);color-rendering:auto;image-rendering:auto;shape-rendering:auto;text-rendering:auto;enable-background:accumulate"
           id="path9797-6"
           d="M 142.45529,56.504119 A 86.258598,87.436989 0 0 1 44.833006,-0.01937354 L 126.09512,-29.345802 Z" />
        <path
           style="color:#000000;clip-rule:nonzero;display:inline;overflow:visible;visibility:visible;opacity:1;isolation:auto;mix-blend-mode:normal;color-interpolation:sRGB;color-interpolation-filters:linearRGB;solid-color:#000000;solid-opacity:1;fill:#00ff00;fill-opacity:1;fill-rule:nonzero;stroke:none;stroke-width:12;stroke-linecap:round;stroke-linejoin:miter;stroke-miterlimit:4;stroke-dasharray:none;stroke-dashoffset:0;stroke-opacity:1;filter:url(#filter14270);color-rendering:auto;image-rendering:auto;shape-rendering:auto;text-rendering:auto;enable-background:accumulate"
           id="path9797-1"
           d="m 40.659881,-17.293671 a 86.258598,87.436989 0 0 1 36.314343,-83.926949 86.258598,87.436989 0 0 1 90.276596,-4.96814 l -41.1557,76.842958 z" />
        <path
           style="color:#000000;clip-rule:nonzero;display:inline;overflow:visible;visibility:visible;opacity:1;isolation:auto;mix-blend-mode:normal;color-interpolation:sRGB;color-interpolation-filters:linearRGB;solid-color:#000000;solid-opacity:1;fill:#ff00ff;fill-opacity:1;fill-rule:nonzero;stroke:none;stroke-width:12;stroke-linecap:round;stroke-linejoin:miter;stroke-miterlimit:4;stroke-dasharray:none;stroke-dashoffset:0;stroke-opacity:1;filter:url(#filter14566);color-rendering:auto;image-rendering:auto;shape-rendering:auto;text-rendering:auto;enable-background:accumulate"
           id="path9797"
           d="M 203.67891,8.8693797 A 86.258598,87.436989 0 0 1 104.92194,55.416168 l 21.17318,-84.761966 z" />
        <path
           style="color:#000000;clip-rule:nonzero;display:inline;overflow:visible;visibility:visible;opacity:1;isolation:auto;mix-blend-mode:normal;color-interpolation:sRGB;color-interpolation-filters:linearRGB;solid-color:#000000;solid-opacity:1;fill:#ff0000;fill-opacity:1;fill-rule:nonzero;stroke:none;stroke-width:12;stroke-linecap:round;stroke-linejoin:miter;stroke-miterlimit:4;stroke-dasharray:none;stroke-dashoffset:0;stroke-opacity:1;filter:url(#filter14322);color-rendering:auto;image-rendering:auto;shape-rendering:auto;text-rendering:auto;enable-background:accumulate"
           id="path9797-9"
           d="m 209.21045,-52.734562 a 86.258598,87.436989 0 0 1 -16.431,78.851366 l -66.68433,-55.462606 z" />
        <path
           style="color:#000000;clip-rule:nonzero;display:inline;overflow:visible;visibility:visible;opacity:1;isolation:auto;mix-blend-mode:normal;color-interpolation:sRGB;color-interpolation-filters:linearRGB;solid-color:#000000;solid-opacity:1;fill:#ffff00;fill-opacity:1;fill-rule:nonzero;stroke:none;stroke-width:12;stroke-linecap:round;stroke-linejoin:miter;stroke-miterlimit:4;stroke-dasharray:none;stroke-dashoffset:0;stroke-opacity:1;filter:url(#filter15122);color-rendering:auto;image-rendering:auto;shape-rendering:auto;text-rendering:auto;enable-background:accumulate"
           id="path9797-2"
           d="m 150.41879,-113.23449 a 86.258598,87.436989 0 0 1 61.92225,82.389356 l -86.24592,1.499332 z" />
        <path
           style="color:#000000;clip-rule:nonzero;display:inline;overflow:visible;visibility:visible;opacity:1;isolation:auto;mix-blend-mode:normal;color-interpolation:sRGB;color-interpolation-filters:linearRGB;solid-color:#000000;solid-opacity:1;fill:#00ffff;fill-opacity:1;fill-rule:nonzero;stroke:none;stroke-width:12;stroke-linecap:round;stroke-linejoin:miter;stroke-miterlimit:4;stroke-dasharray:none;stroke-dashoffset:0;stroke-opacity:1;filter:url(#filter15030);color-rendering:auto;image-rendering:auto;shape-rendering:auto;text-rendering:auto;enable-background:accumulate"
           id="path9797-3"
           d="M 76.153187,41.945273 A 86.258598,87.436989 0 0 1 50.87322,-72.138765 l 75.2219,42.792963 z" />
      </g>
      <path
         transform="matrix(0.89035017,0,0,0.89035017,13.980632,-3.1598897)"
         d="m 127.80178,-43.241277 a 14.778082,14.426225 0 0 1 14.47706,14.647536 14.778082,14.426225 0 0 1 -14.93653,14.201107 14.778082,14.426225 0 0 1 -14.61757,-14.513938 14.778082,14.426225 0 0 1 14.79901,-14.337648"
         id="path7529-6-9"
         style="color:#000000;clip-rule:nonzero;display:inline;overflow:visible;visibility:visible;opacity:1;isolation:auto;mix-blend-mode:normal;color-interpolation:sRGB;color-interpolation-filters:linearRGB;solid-color:#000000;solid-opacity:1;fill:#ffffff;fill-opacity:1;fill-rule:nonzero;stroke:none;stroke-width:12;stroke-linecap:round;stroke-linejoin:miter;stroke-miterlimit:4;stroke-dasharray:none;stroke-dashoffset:0;stroke-opacity:1;filter:url(#filter17690);color-rendering:auto;image-rendering:auto;shape-rendering:auto;text-rendering:auto;enable-background:accumulate" />
    </g>
    <path
       id="path6190-6-0-6"
       d="M 116.63138,78.56606 C 76.665667,36.726976 61.52241,24.862159 50.12594,16.119657 38.729468,7.3771523 32.953173,4.410949 27.645244,3.1620216 22.337297,1.9130988 19.839439,3.0059047 18.278293,4.410949 c -1.561168,1.4050466 -7.493579,8.118037 -8.274153,23.885764 -0.7805842,15.767706 1.717283,32.472121 5.620174,45.741983 3.902902,13.269867 14.362664,35.282224 18.890027,41.214624 4.527362,5.93241 5.307948,4.37127 5.307948,4.37127 0,0 2.966204,-4.21514 15.455485,-12.33317 C 67.767065,99.173383 80.568561,91.835926 91.808928,87.308563 103.04927,82.781201 116.63138,78.56606 116.63138,78.56606 Z"
       style="fill:none;fill-rule:evenodd;stroke:#848484;stroke-width:2.29142284;stroke-linecap:butt;stroke-linejoin:miter;stroke-miterlimit:4;stroke-dasharray:none;stroke-opacity:1" />
  </g>
  <g
     id="text18224-1"
     style="font-style:normal;font-weight:normal;font-size:30.23560905px;line-height:125%;font-family:sans-serif;letter-spacing:0px;word-spacing:0px;fill:none;fill-opacity:1;stroke:#9e9e9e;stroke-width:8;stroke-linecap:butt;stroke-linejoin:miter;stroke-miterlimit:4;stroke-dasharray:none;stroke-opacity:1;filter:url(#filter4453)"
     transform="matrix(0.96064557,0,0,0.96064557,1.6754343,2.5668225)">
    <path
       id="path4218"
       style="font-style:normal;font-variant:normal;font-weight:bold;font-stretch:normal;font-family:'MgOpen Modata';-inkscape-font-specification:'MgOpen Modata Bold';fill:none;fill-opacity:1;stroke:#9e9e9e;stroke-width:8;stroke-miterlimit:4;stroke-dasharray:none;stroke-opacity:1"
       d="m 14.357153,29.374687 q 5.200524,0 8.224085,3.628273 2.69097,3.265446 2.69097,8.042672 0,4.807462 -2.721205,8.163615 -3.053797,3.71898 -8.19385,3.71898 -5.2005251,0 -8.224086,-3.658509 -2.7514404,-3.325917 -2.7514404,-8.072908 0,-4.807461 2.7514404,-8.133378 3.0537965,-3.688745 8.224086,-3.688745 z m 0,18.685607 q 3.416624,0 4.898168,-3.567802 1.360603,-3.325917 0.06047,-6.651834 -1.390838,-3.567802 -4.867933,-3.567802 -2.69097,0 -4.263221,2.176964 -1.421074,1.935079 -1.421074,4.74699 0,2.781677 1.421074,4.716755 1.542016,2.146729 4.172514,2.146729 z" />
    <path
       id="path4220"
       style="font-style:normal;font-variant:normal;font-weight:bold;font-stretch:normal;font-family:'MgOpen Modata';-inkscape-font-specification:'MgOpen Modata Bold';fill:none;fill-opacity:1;stroke:#9e9e9e;stroke-width:8;stroke-miterlimit:4;stroke-dasharray:none;stroke-opacity:1"
       d="m 27.416573,37.508066 q 0,-1.148953 0.725655,-1.783901 0.634947,-0.574476 1.572251,-0.574476 0.937304,0 1.632723,0.574476 0.725655,0.574477 0.725655,1.511781 1.814136,-2.025786 4.20275,-2.025786 3.446859,0 5.563352,2.902618 1.935079,2.660734 1.935079,6.319243 0,3.50733 -1.844373,5.835472 -2.025785,2.630498 -5.654058,2.630498 -2.146729,0 -3.960865,-1.209424 l 0,5.563352 q 0,1.088482 -0.755891,1.72343 -0.75589,0.665183 -1.7839,0.665183 -0.96754,0 -1.662959,-0.665183 -0.695419,-0.665184 -0.695419,-1.935079 l 0,-19.532204 z m 8.405499,2.630498 q -1.662958,0 -2.660733,1.269896 -0.876833,1.118717 -0.876833,2.781676 0,1.662958 0.907068,2.811911 0.96754,1.269896 2.630498,1.269896 1.542016,0 2.449085,-1.23966 0.786126,-1.088482 0.786126,-2.721205 0,-1.693194 -0.816362,-2.872383 -0.907068,-1.300131 -2.418849,-1.300131 z" />
    <path
       id="path4222"
       style="font-style:normal;font-variant:normal;font-weight:bold;font-stretch:normal;font-family:'MgOpen Modata';-inkscape-font-specification:'MgOpen Modata Bold';fill:none;fill-opacity:1;stroke:#9e9e9e;stroke-width:8;stroke-miterlimit:4;stroke-dasharray:none;stroke-opacity:1"
       d="m 45.900452,43.978487 q 0,-4.142279 2.660734,-6.591363 2.388613,-2.2072 5.835472,-2.2072 3.265446,0 5.502881,2.025786 2.47932,2.237435 2.47932,6.047122 0,2.267671 -1.51178,2.267671 l -9.554453,0 q 0.816362,3.084032 3.870158,3.084032 1.088482,0 2.176964,-0.423299 0.967539,-0.362827 1.451309,-0.846597 0.695419,-0.725654 1.511781,-0.725654 0.786125,0 1.360602,0.634947 0.574477,0.634948 0.574477,1.542016 0,1.481545 -1.602488,2.539792 -2.358377,1.572251 -5.321467,1.572251 -3.779451,0 -6.500656,-2.358377 -2.932854,-2.570027 -2.932854,-6.561127 z m 5.291232,-1.935079 6.409949,0 Q 57.238806,40.682805 56.301502,39.896679 55.48514,39.20126 54.426894,39.20126 q -1.088482,0 -1.935079,0.725655 -0.937304,0.75589 -1.300131,2.116493 z" />
    <path
       id="path4224"
       style="font-style:normal;font-variant:normal;font-weight:bold;font-stretch:normal;font-family:'MgOpen Modata';-inkscape-font-specification:'MgOpen Modata Bold';fill:none;fill-opacity:1;stroke:#9e9e9e;stroke-width:8;stroke-miterlimit:4;stroke-dasharray:none;stroke-opacity:1"
       d="m 64.56149,37.508066 q 0,-1.088482 0.725654,-1.753665 0.634948,-0.574477 1.572252,-0.574477 0.937304,0 1.602487,0.574477 0.725655,0.665183 0.725655,1.753665 1.209424,-2.328142 4.444634,-2.328142 2.358378,0 4.081808,1.330367 1.874607,1.481545 1.874607,3.900394 l 0,9.463745 q 0,1.269896 -0.75589,2.025786 -0.665183,0.634948 -1.662958,0.634948 -0.997776,0 -1.693195,-0.634948 -0.786125,-0.725655 -0.786125,-1.935079 l 0,-8.284557 q 0,-0.937304 -0.755891,-1.481545 -0.75589,-0.544241 -1.783901,-0.544241 -1.118717,0 -1.874607,0.604713 -0.846597,0.695419 -0.846597,1.904843 l 0,7.468195 q 0,1.360603 -0.725655,2.146729 -0.725655,0.75589 -1.693194,0.75589 -0.997775,0 -1.72343,-0.75589 -0.725654,-0.786126 -0.725654,-2.146729 l 0,-12.124479 z" />
    <path
       id="path4226"
       style="font-style:normal;font-variant:normal;font-weight:bold;font-stretch:normal;font-family:'MgOpen Modata';-inkscape-font-specification:'MgOpen Modata Bold';fill:none;fill-opacity:1;stroke:#9e9e9e;stroke-width:8;stroke-miterlimit:4;stroke-dasharray:none;stroke-opacity:1"
       d="m 81.923344,49.934902 0,-17.173826 q 0,-1.23966 0.786126,-1.995551 0.695419,-0.634947 1.72343,-0.634947 0.967539,0 1.662958,0.634947 0.695419,0.634948 0.695419,1.753666 l 0,17.415711 q 0,1.209424 -0.725654,1.904843 -0.725655,0.665183 -1.693195,0.665183 -0.997775,0 -1.723429,-0.665183 -0.725655,-0.695419 -0.725655,-1.904843 z" />
    <path
       id="path4228"
       style="font-style:normal;font-variant:normal;font-weight:bold;font-stretch:normal;font-family:'MgOpen Modata';-inkscape-font-specification:'MgOpen Modata Bold';fill:none;fill-opacity:1;stroke:#9e9e9e;stroke-width:8;stroke-miterlimit:4;stroke-dasharray:none;stroke-opacity:1"
       d="m 100.1625,47.909116 q 1.08849,0 2.08626,-0.241885 1.33037,-0.362827 2.66073,-0.695419 0.27213,-0.09071 0.54425,-0.09071 1.02801,0 1.84437,0.846597 0.81636,0.816361 0.81636,1.814137 0,1.269895 -1.42107,1.874607 -2.05603,0.846597 -3.35616,1.148953 -1.45131,0.332592 -3.62827,0.332592 -5.019111,0 -7.92173,-3.598037 -2.600262,-3.204975 -2.600262,-7.92173 0,-4.807462 2.690969,-8.224086 2.993325,-3.749215 7.982201,-3.749215 2.358382,0 3.446862,0.241885 1.26989,0.27212 3.38639,1.330367 1.4513,0.725654 1.4513,2.025785 0,0.937304 -0.75589,1.693195 -0.75589,0.725654 -1.75366,0.725654 -0.27212,0 -0.54424,-0.09071 -0.12094,-0.03024 -2.53979,-0.816361 -1.05825,-0.362827 -2.630501,-0.332592 -2.47932,0.09071 -3.930629,2.237435 -1.330367,1.904844 -1.330367,4.656284 0,2.781676 1.360603,4.686519 1.542016,2.146729 4.142274,2.146729 z" />
    <path
       id="path4230"
       style="font-style:normal;font-variant:normal;font-weight:bold;font-stretch:normal;font-family:'MgOpen Modata';-inkscape-font-specification:'MgOpen Modata Bold';fill:none;fill-opacity:1;stroke:#9e9e9e;stroke-width:8;stroke-miterlimit:4;stroke-dasharray:none;stroke-opacity:1"
       d="m 119.44361,47.909116 q 1.08848,0 2.08626,-0.241885 1.33036,-0.362827 2.66073,-0.695419 0.27212,-0.09071 0.54424,-0.09071 1.02801,0 1.84437,0.846597 0.81636,0.816361 0.81636,1.814137 0,1.269895 -1.42107,1.874607 -2.05602,0.846597 -3.35615,1.148953 -1.45131,0.332592 -3.62828,0.332592 -5.01911,0 -7.92172,-3.598037 -2.60027,-3.204975 -2.60027,-7.92173 0,-4.807462 2.69097,-8.224086 2.99333,-3.749215 7.9822,-3.749215 2.35838,0 3.44686,0.241885 1.2699,0.27212 3.38639,1.330367 1.45131,0.725654 1.45131,2.025785 0,0.937304 -0.75589,1.693195 -0.75589,0.725654 -1.75367,0.725654 -0.27212,0 -0.54424,-0.09071 -0.12094,-0.03024 -2.53979,-0.816361 -1.05824,-0.362827 -2.6305,-0.332592 -2.47932,0.09071 -3.93063,2.237435 -1.33036,1.904844 -1.33036,4.656284 0,2.781676 1.3606,4.686519 1.54202,2.146729 4.14228,2.146729 z" />
  </g>
  <g
     id="text18224"
     style="font-style:normal;font-weight:normal;font-size:29.04570389px;line-height:125%;font-family:sans-serif;letter-spacing:0px;word-spacing:0px;fill:#4d4d4d;fill-opacity:1;stroke:#ffffff;stroke-width:6.46432781;stroke-linecap:butt;stroke-linejoin:miter;stroke-miterlimit:4;stroke-dasharray:none;stroke-opacity:1">
    <path
       id="path4203"
       style="font-style:normal;font-variant:normal;font-weight:bold;font-stretch:normal;font-family:'MgOpen Modata';-inkscape-font-specification:'MgOpen Modata Bold';fill:#4d4d4d;fill-opacity:1;stroke:#ffffff;stroke-width:6.46432781;stroke-miterlimit:4;stroke-dasharray:none;stroke-opacity:1"
       d="m 13.546278,28.864192 q 4.995861,0 7.900432,3.485484 2.585067,3.136936 2.585067,7.726158 0,4.618267 -2.614113,7.84234 -2.933616,3.572621 -7.871386,3.572621 -4.9958609,0 -7.9004313,-3.51453 -2.643159,-3.195027 -2.643159,-7.755203 0,-4.618267 2.643159,-7.813294 2.9336161,-3.543576 7.9004313,-3.543576 z m 0,17.950245 q 3.282165,0 4.705404,-3.427393 1.307057,-3.195028 0.05809,-6.390055 -1.336103,-3.427393 -4.676359,-3.427393 -2.585067,0 -4.0954439,2.091291 -1.3651481,1.858925 -1.3651481,4.560175 0,2.672205 1.3651481,4.53113 1.4813309,2.062245 4.0083069,2.062245 z" />
    <path
       id="path4205"
       style="font-style:normal;font-variant:normal;font-weight:bold;font-stretch:normal;font-family:'MgOpen Modata';-inkscape-font-specification:'MgOpen Modata Bold';fill:#4d4d4d;fill-opacity:1;stroke:#ffffff;stroke-width:6.46432781;stroke-miterlimit:4;stroke-dasharray:none;stroke-opacity:1"
       d="m 26.091753,36.677486 q 0,-1.103736 0.697097,-1.713696 0.60996,-0.551869 1.510377,-0.551869 0.900417,0 1.568468,0.551869 0.697097,0.551868 0.697097,1.452285 1.742742,-1.946062 4.037352,-1.946062 3.311211,0 5.34441,2.788387 1.858925,2.556022 1.858925,6.070552 0,3.369302 -1.771788,5.605821 -1.946062,2.526977 -5.431547,2.526977 -2.062244,0 -3.804987,-1.161829 l 0,5.34441 q 0,1.045645 -0.726142,1.655605 -0.726143,0.639006 -1.713697,0.639006 -0.929462,0 -1.597514,-0.639006 -0.668051,-0.639005 -0.668051,-1.858925 l 0,-18.763525 z m 8.074706,2.526977 q -1.597514,0 -2.556022,1.219919 -0.842325,1.074691 -0.842325,2.672205 0,1.597514 0.871371,2.70125 0.929462,1.21992 2.526976,1.21992 1.481331,0 2.352702,-1.190874 0.755188,-1.045645 0.755188,-2.614113 0,-1.62656 -0.784234,-2.759342 -0.871371,-1.248965 -2.323656,-1.248965 z" />
    <path
       id="path4207"
       style="font-style:normal;font-variant:normal;font-weight:bold;font-stretch:normal;font-family:'MgOpen Modata';-inkscape-font-specification:'MgOpen Modata Bold';fill:#4d4d4d;fill-opacity:1;stroke:#ffffff;stroke-width:6.46432781;stroke-miterlimit:4;stroke-dasharray:none;stroke-opacity:1"
       d="m 43.848208,42.893267 q 0,-3.979261 2.556022,-6.331964 2.29461,-2.120336 5.605821,-2.120336 3.136936,0 5.286318,1.946062 2.381747,2.149382 2.381747,5.809141 0,2.178428 -1.452285,2.178428 l -9.178442,0 q 0.784234,2.962662 3.71785,2.962662 1.045645,0 2.09129,-0.40664 0.929463,-0.348549 1.394194,-0.81328 0.668051,-0.697097 1.452285,-0.697097 0.755189,0 1.307057,0.60996 0.551869,0.60996 0.551869,1.481331 0,1.423239 -1.539423,2.439839 -2.265565,1.510377 -5.112044,1.510377 -3.630713,0 -6.244826,-2.265565 -2.817433,-2.468885 -2.817433,-6.302918 z m 5.082998,-1.858925 6.157689,0 q -0.348548,-1.307057 -1.248965,-2.062245 -0.784234,-0.668051 -1.800834,-0.668051 -1.045645,0 -1.858925,0.697097 -0.900417,0.726142 -1.248965,2.033199 z" />
    <path
       id="path4209"
       style="font-style:normal;font-variant:normal;font-weight:bold;font-stretch:normal;font-family:'MgOpen Modata';-inkscape-font-specification:'MgOpen Modata Bold';fill:#4d4d4d;fill-opacity:1;stroke:#ffffff;stroke-width:6.46432781;stroke-miterlimit:4;stroke-dasharray:none;stroke-opacity:1"
       d="m 61.774855,36.677486 q 0,-1.045645 0.697097,-1.684651 0.60996,-0.551868 1.510376,-0.551868 0.900417,0 1.539423,0.551868 0.697097,0.639006 0.697097,1.684651 1.161828,-2.236519 4.269718,-2.236519 2.265565,0 3.92117,1.278011 1.800834,1.42324 1.800834,3.746896 l 0,9.091305 q 0,1.21992 -0.726143,1.946062 -0.639005,0.60996 -1.597514,0.60996 -0.958508,0 -1.626559,-0.60996 -0.755188,-0.697097 -0.755188,-1.858925 l 0,-7.958523 q 0,-0.900416 -0.726143,-1.423239 -0.726142,-0.522823 -1.713696,-0.522823 -1.074691,0 -1.800834,0.580914 -0.81328,0.668052 -0.81328,1.82988 l 0,7.174289 q 0,1.307056 -0.697097,2.062245 -0.697097,0.726142 -1.626559,0.726142 -0.958508,0 -1.655605,-0.726142 -0.697097,-0.755189 -0.697097,-2.062245 l 0,-11.647328 z" />
    <path
       id="path4211"
       style="font-style:normal;font-variant:normal;font-weight:bold;font-stretch:normal;font-family:'MgOpen Modata';-inkscape-font-specification:'MgOpen Modata Bold';fill:#4d4d4d;fill-opacity:1;stroke:#ffffff;stroke-width:6.46432781;stroke-miterlimit:4;stroke-dasharray:none;stroke-opacity:1"
       d="m 78.45344,48.615271 0,-16.49796 q 0,-1.190874 0.755188,-1.917017 0.668051,-0.609959 1.655605,-0.609959 0.929463,0 1.597514,0.609959 0.668051,0.60996 0.668051,1.684651 l 0,16.730326 q 0,1.161828 -0.697097,1.829879 -0.697097,0.639005 -1.626559,0.639005 -0.958508,0 -1.655605,-0.639005 -0.697097,-0.668051 -0.697097,-1.829879 z" />
    <path
       id="path4213"
       style="font-style:normal;font-variant:normal;font-weight:bold;font-stretch:normal;font-family:'MgOpen Modata';-inkscape-font-specification:'MgOpen Modata Bold';fill:#4d4d4d;fill-opacity:1;stroke:#ffffff;stroke-width:6.46432781;stroke-miterlimit:4;stroke-dasharray:none;stroke-opacity:1"
       d="m 95.974806,46.669208 q 1.045645,0 2.004154,-0.232365 1.278011,-0.348549 2.55602,-0.668051 0.26141,-0.08714 0.52282,-0.08714 0.98756,0 1.77179,0.813279 0.78424,0.784234 0.78424,1.742742 0,1.21992 -1.36515,1.800834 -1.97511,0.81328 -3.224075,1.103737 -1.394194,0.319503 -3.485485,0.319503 -4.821586,0 -7.609974,-3.456439 -2.49793,-3.078845 -2.49793,-7.609975 0,-4.618267 2.585067,-7.900431 2.875525,-3.601667 7.668066,-3.601667 2.265565,0 3.31121,0.232365 1.219921,0.261412 3.253121,1.278011 1.39419,0.697097 1.39419,1.946062 0,0.900417 -0.72614,1.62656 -0.72614,0.697097 -1.68465,0.697097 -0.26141,0 -0.52282,-0.08714 -0.11619,-0.02905 -2.439843,-0.784234 -1.0166,-0.348549 -2.526977,-0.319503 -2.381747,0.08714 -3.775941,2.149382 -1.278011,1.829879 -1.278011,4.473038 0,2.672205 1.307057,4.502084 1.481331,2.062245 3.979261,2.062245 z" />
    <path
       id="path4215"
       style="font-style:normal;font-variant:normal;font-weight:bold;font-stretch:normal;font-family:'MgOpen Modata';-inkscape-font-specification:'MgOpen Modata Bold';fill:#4d4d4d;fill-opacity:1;stroke:#ffffff;stroke-width:6.46432781;stroke-miterlimit:4;stroke-dasharray:none;stroke-opacity:1"
       d="m 114.49712,46.669208 q 1.04565,0 2.00416,-0.232365 1.27801,-0.348549 2.55602,-0.668051 0.26141,-0.08714 0.52282,-0.08714 0.98755,0 1.77179,0.813279 0.78423,0.784234 0.78423,1.742742 0,1.21992 -1.36515,1.800834 -1.9751,0.81328 -3.22407,1.103737 -1.39419,0.319503 -3.48548,0.319503 -4.82159,0 -7.60998,-3.456439 -2.49793,-3.078845 -2.49793,-7.609975 0,-4.618267 2.58507,-7.900431 2.87552,-3.601667 7.66806,-3.601667 2.26557,0 3.31122,0.232365 1.21991,0.261412 3.25311,1.278011 1.3942,0.697097 1.3942,1.946062 0,0.900417 -0.72614,1.62656 -0.72615,0.697097 -1.68466,0.697097 -0.26141,0 -0.52282,-0.08714 -0.11618,-0.02905 -2.43984,-0.784234 -1.0166,-0.348549 -2.52697,-0.319503 -2.38175,0.08714 -3.77595,2.149382 -1.27801,1.829879 -1.27801,4.473038 0,2.672205 1.30706,4.502084 1.48133,2.062245 3.97926,2.062245 z" />
  </g>
  <g
     id="text18224-3"
     style="font-style:normal;font-weight:normal;font-size:29.04570389px;line-height:125%;font-family:sans-serif;letter-spacing:0px;word-spacing:0px;fill:#000000;fill-opacity:1;stroke:none;stroke-width:1px;stroke-linecap:butt;stroke-linejoin:miter;stroke-opacity:1">
    <path
       id="path4188"
       style="font-style:normal;font-variant:normal;font-weight:bold;font-stretch:normal;font-family:'MgOpen Modata';-inkscape-font-specification:'MgOpen Modata Bold';fill:#000000;fill-opacity:1;stroke:none;stroke-width:0.76277655;stroke-miterlimit:4;stroke-dasharray:none;stroke-opacity:1"
       d="m 13.546278,28.864192 q 4.995861,0 7.900432,3.485484 2.585067,3.136936 2.585067,7.726158 0,4.618267 -2.614113,7.84234 -2.933616,3.572621 -7.871386,3.572621 -4.9958609,0 -7.9004313,-3.51453 -2.643159,-3.195027 -2.643159,-7.755203 0,-4.618267 2.643159,-7.813294 2.9336161,-3.543576 7.9004313,-3.543576 z m 0,17.950245 q 3.282165,0 4.705404,-3.427393 1.307057,-3.195028 0.05809,-6.390055 -1.336103,-3.427393 -4.676359,-3.427393 -2.585067,0 -4.0954439,2.091291 -1.3651481,1.858925 -1.3651481,4.560175 0,2.672205 1.3651481,4.53113 1.4813309,2.062245 4.0083069,2.062245 z" />
    <path
       id="path4190"
       style="font-style:normal;font-variant:normal;font-weight:bold;font-stretch:normal;font-family:'MgOpen Modata';-inkscape-font-specification:'MgOpen Modata Bold';fill:#000000;fill-opacity:1;stroke:none;stroke-width:0.76277655;stroke-miterlimit:4;stroke-dasharray:none;stroke-opacity:1"
       d="m 26.091753,36.677486 q 0,-1.103736 0.697097,-1.713696 0.60996,-0.551869 1.510377,-0.551869 0.900417,0 1.568468,0.551869 0.697097,0.551868 0.697097,1.452285 1.742742,-1.946062 4.037352,-1.946062 3.311211,0 5.34441,2.788387 1.858925,2.556022 1.858925,6.070552 0,3.369302 -1.771788,5.605821 -1.946062,2.526977 -5.431547,2.526977 -2.062244,0 -3.804987,-1.161829 l 0,5.34441 q 0,1.045645 -0.726142,1.655605 -0.726143,0.639006 -1.713697,0.639006 -0.929462,0 -1.597514,-0.639006 -0.668051,-0.639005 -0.668051,-1.858925 l 0,-18.763525 z m 8.074706,2.526977 q -1.597514,0 -2.556022,1.219919 -0.842325,1.074691 -0.842325,2.672205 0,1.597514 0.871371,2.70125 0.929462,1.21992 2.526976,1.21992 1.481331,0 2.352702,-1.190874 0.755188,-1.045645 0.755188,-2.614113 0,-1.62656 -0.784234,-2.759342 -0.871371,-1.248965 -2.323656,-1.248965 z" />
    <path
       id="path4192"
       style="font-style:normal;font-variant:normal;font-weight:bold;font-stretch:normal;font-family:'MgOpen Modata';-inkscape-font-specification:'MgOpen Modata Bold';fill:#000000;fill-opacity:1;stroke:none;stroke-width:0.76277655;stroke-miterlimit:4;stroke-dasharray:none;stroke-opacity:1"
       d="m 43.848208,42.893267 q 0,-3.979261 2.556022,-6.331964 2.29461,-2.120336 5.605821,-2.120336 3.136936,0 5.286318,1.946062 2.381747,2.149382 2.381747,5.809141 0,2.178428 -1.452285,2.178428 l -9.178442,0 q 0.784234,2.962662 3.71785,2.962662 1.045645,0 2.09129,-0.40664 0.929463,-0.348549 1.394194,-0.81328 0.668051,-0.697097 1.452285,-0.697097 0.755189,0 1.307057,0.60996 0.551869,0.60996 0.551869,1.481331 0,1.423239 -1.539423,2.439839 -2.265565,1.510377 -5.112044,1.510377 -3.630713,0 -6.244826,-2.265565 -2.817433,-2.468885 -2.817433,-6.302918 z m 5.082998,-1.858925 6.157689,0 q -0.348548,-1.307057 -1.248965,-2.062245 -0.784234,-0.668051 -1.800834,-0.668051 -1.045645,0 -1.858925,0.697097 -0.900417,0.726142 -1.248965,2.033199 z" />
    <path
       id="path4194"
       style="font-style:normal;font-variant:normal;font-weight:bold;font-stretch:normal;font-family:'MgOpen Modata';-inkscape-font-specification:'MgOpen Modata Bold';fill:#000000;fill-opacity:1;stroke:none;stroke-width:0.76277655;stroke-miterlimit:4;stroke-dasharray:none;stroke-opacity:1"
       d="m 61.774855,36.677486 q 0,-1.045645 0.697097,-1.684651 0.60996,-0.551868 1.510376,-0.551868 0.900417,0 1.539423,0.551868 0.697097,0.639006 0.697097,1.684651 1.161828,-2.236519 4.269718,-2.236519 2.265565,0 3.92117,1.278011 1.800834,1.42324 1.800834,3.746896 l 0,9.091305 q 0,1.21992 -0.726143,1.946062 -0.639005,0.60996 -1.597514,0.60996 -0.958508,0 -1.626559,-0.60996 -0.755188,-0.697097 -0.755188,-1.858925 l 0,-7.958523 q 0,-0.900416 -0.726143,-1.423239 -0.726142,-0.522823 -1.713696,-0.522823 -1.074691,0 -1.800834,0.580914 -0.81328,0.668052 -0.81328,1.82988 l 0,7.174289 q 0,1.307056 -0.697097,2.062245 -0.697097,0.726142 -1.626559,0.726142 -0.958508,0 -1.655605,-0.726142 -0.697097,-0.755189 -0.697097,-2.062245 l 0,-11.647328 z" />
    <path
       id="path4196"
       style="font-style:normal;font-variant:normal;font-weight:bold;font-stretch:normal;font-family:'MgOpen Modata';-inkscape-font-specification:'MgOpen Modata Bold';fill:#000000;fill-opacity:1;stroke:none;stroke-width:0.76277655;stroke-miterlimit:4;stroke-dasharray:none;stroke-opacity:1"
       d="m 78.45344,48.615271 0,-16.49796 q 0,-1.190874 0.755188,-1.917017 0.668051,-0.609959 1.655605,-0.609959 0.929463,0 1.597514,0.609959 0.668051,0.60996 0.668051,1.684651 l 0,16.730326 q 0,1.161828 -0.697097,1.829879 -0.697097,0.639005 -1.626559,0.639005 -0.958508,0 -1.655605,-0.639005 -0.697097,-0.668051 -0.697097,-1.829879 z" />
    <path
       id="path4198"
       style="font-style:normal;font-variant:normal;font-weight:bold;font-stretch:normal;font-family:'MgOpen Modata';-inkscape-font-specification:'MgOpen Modata Bold';fill:#000000;fill-opacity:1;stroke:none;stroke-width:0.76277655;stroke-miterlimit:4;stroke-dasharray:none;stroke-opacity:1"
       d="m 95.974806,46.669208 q 1.045645,0 2.004154,-0.232365 1.278011,-0.348549 2.55602,-0.668051 0.26141,-0.08714 0.52282,-0.08714 0.98756,0 1.77179,0.813279 0.78424,0.784234 0.78424,1.742742 0,1.21992 -1.36515,1.800834 -1.97511,0.81328 -3.224075,1.103737 -1.394194,0.319503 -3.485485,0.319503 -4.821586,0 -7.609974,-3.456439 -2.49793,-3.078845 -2.49793,-7.609975 0,-4.618267 2.585067,-7.900431 2.875525,-3.601667 7.668066,-3.601667 2.265565,0 3.31121,0.232365 1.219921,0.261412 3.253121,1.278011 1.39419,0.697097 1.39419,1.946062 0,0.900417 -0.72614,1.62656 -0.72614,0.697097 -1.68465,0.697097 -0.26141,0 -0.52282,-0.08714 -0.11619,-0.02905 -2.439843,-0.784234 -1.0166,-0.348549 -2.526977,-0.319503 -2.381747,0.08714 -3.775941,2.149382 -1.278011,1.829879 -1.278011,4.473038 0,2.672205 1.307057,4.502084 1.481331,2.062245 3.979261,2.062245 z" />
    <path
       id="path4200"
       style="font-style:normal;font-variant:normal;font-weight:bold;font-stretch:normal;font-family:'MgOpen Modata';-inkscape-font-specification:'MgOpen Modata Bold';fill:#000000;fill-opacity:1;stroke:none;stroke-width:0.76277655;stroke-miterlimit:4;stroke-dasharray:none;stroke-opacity:1"
       d="m 114.49712,46.669208 q 1.04565,0 2.00416,-0.232365 1.27801,-0.348549 2.55602,-0.668051 0.26141,-0.08714 0.52282,-0.08714 0.98755,0 1.77179,0.813279 0.78423,0.784234 0.78423,1.742742 0,1.21992 -1.36515,1.800834 -1.9751,0.81328 -3.22407,1.103737 -1.39419,0.319503 -3.48548,0.319503 -4.82159,0 -7.60998,-3.456439 -2.49793,-3.078845 -2.49793,-7.609975 0,-4.618267 2.58507,-7.900431 2.87552,-3.601667 7.66806,-3.601667 2.26557,0 3.31122,0.232365 1.21991,0.261412 3.25311,1.278011 1.3942,0.697097 1.3942,1.946062 0,0.900417 -0.72614,1.62656 -0.72615,0.697097 -1.68466,0.697097 -0.26141,0 -0.52282,-0.08714 -0.11618,-0.02905 -2.43984,-0.784234 -1.0166,-0.348549 -2.52697,-0.319503 -2.38175,0.08714 -3.77595,2.149382 -1.27801,1.829879 -1.27801,4.473038 0,2.672205 1.30706,4.502084 1.48133,2.062245 3.97926,2.062245 z" />
  </g>
</svg>
