<?xml version="1.0" encoding="UTF-8" standalone="no"?>
<svg
   xmlns:dc="http://purl.org/dc/elements/1.1/"
   xmlns:cc="http://creativecommons.org/ns#"
   xmlns:rdf="http://www.w3.org/1999/02/22-rdf-syntax-ns#"
   xmlns:svg="http://www.w3.org/2000/svg"
   xmlns="http://www.w3.org/2000/svg"
   xmlns:xlink="http://www.w3.org/1999/xlink"
   xmlns:sodipodi="http://sodipodi.sourceforge.net/DTD/sodipodi-0.dtd"
   xmlns:inkscape="http://www.inkscape.org/namespaces/inkscape"
   version="1.0"
   id="svg2606"
   height="128"
   width="128"
   sodipodi:docname="logo-sw.svg"
   inkscape:export-filename="/home/kuwe/programme/oyranos/openicc/oyjl/oyjl-args-qml/images/logo.png"
   inkscape:export-xdpi="192"
   inkscape:export-ydpi="192"
   inkscape:version="0.92.3 (unknown)">
  <sodipodi:namedview
     pagecolor="#ffffff"
     bordercolor="#666666"
     borderopacity="1"
     objecttolerance="10"
     gridtolerance="10"
     guidetolerance="10"
     inkscape:pageopacity="0"
     inkscape:pageshadow="2"
     inkscape:window-width="2460"
     inkscape:window-height="1557"
     id="namedview58"
     showgrid="false"
     inkscape:zoom="7.375"
     inkscape:cx="51.050847"
     inkscape:cy="69.423729"
     inkscape:window-x="100"
     inkscape:window-y="0"
     inkscape:window-maximized="1"
     inkscape:current-layer="svg2606" />
  <defs
     id="defs2608">
    <linearGradient
       id="linearGradient4778">
      <stop
         style="stop-color:#000000;stop-opacity:1;"
         offset="0"
         id="stop4780" />
      <stop
         style="stop-color:#000000;stop-opacity:0;"
         offset="1"
         id="stop4782" />
    </linearGradient>
    <filter
       id="filter4794">
      <feGaussianBlur
         stdDeviation="1.6571087"
         id="feGaussianBlur4796" />
    </filter>
    <linearGradient
       xlink:href="#linearGradient4778"
       id="linearGradient7460"
       gradientUnits="userSpaceOnUse"
       x1="256.81406"
       y1="120.49628"
       x2="288.85443"
       y2="70.646294" />
    <filter
       style="color-interpolation-filters:sRGB"
       id="filter14270"
       x="-0.20060531"
       width="1.4012106"
       y="-0.30239243"
       height="1.6047849">
      <feGaussianBlur
         stdDeviation="12.535315"
         id="feGaussianBlur14272" />
    </filter>
    <filter
       style="color-interpolation-filters:sRGB"
       id="filter14322"
       x="-0.30629084"
       width="1.6125817"
       y="-0.33852005"
       height="1.6770401">
      <feGaussianBlur
         stdDeviation="11.008424"
         id="feGaussianBlur14324" />
    </filter>
    <filter
       style="color-interpolation-filters:sRGB"
       id="filter14566"
       x="-0.27619299"
       width="1.552386"
       y="-0.27580728"
       height="1.5516146">
      <feGaussianBlur
         stdDeviation="10.048233"
         id="feGaussianBlur14568" />
    </filter>
    <filter
       style="color-interpolation-filters:sRGB"
       id="filter14802"
       x="-0.21593339"
       width="1.4318668"
       y="-0.28579401"
       height="1.571588">
      <feGaussianBlur
         stdDeviation="10.41207"
         id="feGaussianBlur14804" />
    </filter>
    <filter
       style="color-interpolation-filters:sRGB"
       id="filter15030"
       x="-0.41838735"
       width="1.8367747"
       y="-0.30320005"
       height="1.6064001">
      <feGaussianBlur
         stdDeviation="15.037294"
         id="feGaussianBlur15032" />
    </filter>
    <filter
       style="color-interpolation-filters:sRGB"
       id="filter15122"
       x="-0.40597517"
       width="1.8119503"
       y="-0.41738288"
       height="1.8347658">
      <feGaussianBlur
         stdDeviation="14.589042"
         id="feGaussianBlur15124" />
    </filter>
    <clipPath
       clipPathUnits="userSpaceOnUse"
       id="clipPath15134">
      <path
         id="path15136"
         d="m 179.69849,-18.097207 c -39.54,-41.393433 -54.52196,-53.131871 -65.79704,-61.781253 -11.27508,-8.649381 -16.989854,-11.583989 -22.241242,-12.819614 -5.25141,-1.23562 -7.72266,-0.154455 -9.26718,1.235625 -1.54454,1.39008 -7.41376,8.031566 -8.18602,23.631341 -0.77227,15.599756 1.69899,32.126243 5.56031,45.25476 3.86133,13.1285221 14.209678,34.90641 18.688818,40.77562 4.479144,5.869231 5.251414,4.324701 5.251414,4.324701 0,0 2.93461,-4.170241 15.29086,-12.201811 12.35626,-8.0315479 25.0214,-15.2908479 36.14204,-19.7699879 11.12061,-4.4791401 24.55804,-8.6493811 24.55804,-8.6493811 z"
         style="fill:none;fill-rule:evenodd;stroke:#000000;stroke-width:0.66360509px;stroke-linecap:butt;stroke-linejoin:miter;stroke-opacity:1" />
    </clipPath>
    <filter
       style="color-interpolation-filters:sRGB"
       id="filter17690"
       x="-0.97110006"
       width="2.9422001"
       y="-0.9947853"
       height="2.9895706">
      <feGaussianBlur
         stdDeviation="11.959164"
         id="feGaussianBlur17692" />
    </filter>
  </defs>
  <metadata
     id="metadata2611">
    <rdf:RDF>
      <cc:Work
         rdf:about="">
        <dc:format>image/svg+xml</dc:format>
        <dc:type
           rdf:resource="http://purl.org/dc/dcmitype/StillImage" />
        <dc:title />
      </cc:Work>
    </rdf:RDF>
  </metadata>
  <path
     id="path2197"
     d=""
     style="fill:#000000" />
  <g
     transform="translate(1042.0419,-279.83386)"
     display="none"
     id="Frame_copy"
     style="display:none">
    <g
       id="g3978"
       display="inline"
       style="display:inline">
      <g
         id="g3982">
        <circle
           id="circle3984"
           r="275.909"
           cy="278.93399"
           cx="279.51501" />
      </g>
    </g>
    <g
       display="inline"
       id="Frame_copy_1_"
       style="display:inline" />
  </g>
  <g
     transform="translate(1042.0419,-279.83386)"
     display="none"
     id="Frame_copy_2"
     style="display:none">
    <circle
       id="circle3988"
       r="275.909"
       cy="278.93399"
       cx="279.51501"
       display="inline"
       style="display:inline;fill:#ffffff" />
    <g
       display="inline"
       id="Frame_copy_2_1_"
       style="display:inline" />
  </g>
  <g
     transform="matrix(0.333692,0,0,0.333692,-610.81394,-151.23635)"
     id="Foreground_Grid_1_" />
  <g
     transform="matrix(0.6433923,0,0,0.6433923,563.19164,120.38376)"
     style="display:inline"
     id="layer4" />
  <g
     transform="matrix(0.6433923,0,0,0.6433923,563.19164,120.38376)"
     style="display:inline"
     id="layer5" />
  <rect
     y="130.76021"
     x="563.78369"
     height="0"
     width="0.64339232"
     id="rect1327"
     style="opacity:0.57786889;fill:#ffffff;fill-opacity:1;fill-rule:nonzero;stroke:none" />
  <path
     style="fill:none;fill-rule:evenodd;stroke:#000000;stroke-width:2.20124531;stroke-linecap:butt;stroke-linejoin:miter;stroke-miterlimit:4;stroke-dasharray:none;stroke-opacity:1"
     d="M 38.700738 19.30519 C 29.973002 12.885804 25.082343 10.513999 20.547551 9.4469868 C 15.448495 8.2472147 13.048939 9.2970138 11.549231 10.646763 C 10.049502 11.996515 4.3505575 18.44532 3.6007026 33.592517 C 2.8508378 48.739694 5.2504029 64.786716 8.9996978 77.53435 C 12.749003 90.281989 22.797127 111.42806 27.146319 117.127 C 31.495509 122.82594 32.245375 121.32624 32.245375 121.32624 C 32.245375 121.32624 35.094846 117.27698 47.092619 109.47843 C 59.090401 101.67988 71.388101 94.63118 82.18611 90.281989 C 92.984095 85.932799 106.03169 81.883542 106.03169 81.883542 L 106.03169 81.883542 C 102.19105 77.862872 98.589029 74.130351 95.205367 70.660157 "
     id="path879" />
  <g
     aria-label="Oyjl"
     style="font-style:normal;font-variant:normal;font-weight:normal;font-stretch:normal;font-size:72.85744476px;line-height:86.05210876px;font-family:Bilbo;-inkscape-font-specification:Bilbo;font-variant-ligatures:normal;font-variant-caps:normal;font-variant-numeric:normal;font-feature-settings:normal;text-align:start;letter-spacing:-4.5535903px;word-spacing:0px;writing-mode:lr-tb;text-anchor:start;fill:#000000;fill-opacity:1;stroke:none;stroke-width:1px;stroke-linecap:butt;stroke-linejoin:miter;stroke-opacity:1"
     id="text870">
    <path
       d="m 20.309157,32.628124 q -4.808592,2.404296 -5.027164,2.404296 -0.655717,0 -0.655717,-0.655717 0,-0.728574 2.914298,-2.185723 2.987155,-1.457149 5.537166,-2.404296 3.788587,-3.71573 8.597178,-6.120025 4.808591,-2.404296 9.762898,-2.404296 5.027163,0 5.027163,2.768583 0,1.602864 -1.675721,3.861444 15.882923,2.331439 15.882923,17.70436 0,6.411455 -2.550011,11.875763 -2.55001,5.464308 -6.702884,9.034323 -4.152875,3.497158 -9.325753,5.464309 -5.172879,1.967151 -10.637187,1.967151 -10.200043,0 -15.518636,-5.464309 -5.318593,-5.464308 -5.318593,-13.915772 0,-5.901453 2.404295,-11.657191 2.477153,-5.828595 7.285745,-10.2729 z m 23.241525,-4.954306 q 0.655717,-1.530006 0.655717,-2.477153 0,-1.748579 -3.132871,-1.748579 -3.13287,0 -7.285744,1.530007 -4.152874,1.530006 -6.921457,3.715729 4.298589,-1.311434 9.180038,-1.311434 4.954306,0 7.504317,0.29143 z m -19.015794,3.497158 q -5.318593,4.007159 -7.868604,9.981469 -2.55001,5.901453 -2.55001,12.385766 0,8.014319 4.517161,13.332912 4.517162,5.318594 13.332913,5.318594 4.371447,0 8.742893,-1.821436 4.444304,-1.821436 8.160034,-5.027164 3.71573,-3.278585 6.047168,-8.378606 2.404296,-5.172879 2.404296,-11.365761 0,-6.192883 -3.71573,-10.85576 -3.71573,-4.662876 -9.544325,-5.391451 -1.092862,1.311434 -1.675722,1.311434 -0.510002,0 -0.510002,-0.291429 0,-0.58286 0.655717,-1.16572 -1.020004,-0.07286 -2.987155,-0.07286 -7.504317,0 -15.008634,2.040009 z"
       style="stroke-width:1px"
       id="path881" />
    <path
       d="m 78.197811,47.636758 -1.092861,0.29143 q -0.364288,0 -0.58286,-0.364287 0,-0.947147 2.112866,-2.112866 2.112866,-1.165719 2.914298,-1.165719 0.874289,0 1.020004,0.07286 0.218572,0.364287 0.218572,0.801432 0,2.914298 -6.411455,11.730049 -6.338598,8.81575 -10.200042,13.332912 0,-0.364287 -0.145715,0.07286 -1.092862,4.371447 -1.384291,4.954307 -0.29143,0.582859 -0.58286,0.655717 l -1.311434,-0.364288 q -9.835755,13.187198 -9.835755,16.902928 0,0.655717 0.29143,1.311434 0.29143,0.728574 0.29143,1.238576 0,0.510002 -0.87429,1.092862 -0.874289,0.582859 -1.748578,0.582859 -1.16572,0 -1.16572,-1.384291 0,-2.622868 3.132871,-8.014319 3.13287,-5.318593 6.411455,-9.908613 3.351442,-4.590019 3.4243,-4.881448 0.801431,-2.404296 0.801431,-7.43146 0,-5.100021 -1.165719,-9.617182 -1.092861,-4.517162 -3.060012,-4.517162 -0.218573,0 -0.801432,0.07286 -0.510002,0 -0.510002,-0.364287 0,-0.582859 1.602863,-1.748578 0.218573,-0.145715 1.238577,-1.602864 1.020004,-1.457149 1.530006,-1.457149 1.530007,0 2.695726,4.735734 1.238576,4.662876 1.238576,10.418614 0,0 -0.07286,3.497158 0,1.165719 0.582859,1.165719 1.675722,0 6.702885,-7.722889 5.100022,-7.722889 5.100022,-9.835755 0,-0.437145 -0.364288,-0.437145 z"
       style="stroke-width:1px"
       id="path883" />
    <path
       d="m 83.58243,53.975356 -0.218573,-1.092862 q 0,-0.510002 0.145715,-0.874289 1.165719,-4.517162 2.331439,-6.047168 1.165719,-1.602864 3.497157,-1.602864 0.947147,0 1.165719,0.655717 -5.172879,12.385766 -9.835755,33.004422 -1.748579,7.577175 -5.027164,10.710045 -3.205727,3.205727 -6.775742,3.205727 -6.192883,0 -6.192883,-6.702884 0,-1.748579 0.510002,-3.205728 0.437145,-1.457149 0.87429,-1.457149 0.291429,0 0.364287,0.437145 v 0.728574 q 0,3.934302 1.457149,6.411455 1.457149,2.477153 3.351442,2.477153 3.934302,0 6.26574,-7.358601 4.29859,-13.770058 7.941462,-28.050117 0.145715,-0.582859 0.145715,-1.238576 z m 9.471468,-22.002949 q 1.238576,0 1.238576,0.655717 0,0.655717 -1.092861,1.311434 -1.092862,0.58286 -1.748579,1.602864 -0.655717,0.947147 -0.947147,1.821436 -0.728574,2.331439 -1.967151,2.331439 -0.510002,0 -0.947147,-1.092862 -0.437144,-1.165719 -0.510002,-1.894294 0,-1.530006 2.404296,-3.13287 2.404296,-1.602864 3.570015,-1.602864 z"
       style="stroke-width:1px"
       id="path885" />
    <path
       d="m 96.818579,36.125282 -0.218572,-1.020004 q 0,-0.218573 0.218572,-0.87429 1.457149,-4.590019 2.695726,-6.120025 1.238575,-1.530007 3.642875,-1.530007 1.02,0 1.09286,0.655717 -4.00716,8.305749 -8.160035,20.108655 -4.152875,11.730049 -6.120026,20.5458 -0.07286,0.218572 -0.07286,0.582859 0,0.87429 0.728574,0.87429 0.437145,0 2.331438,-1.092862 1.967151,-1.092862 2.404296,-1.092862 0.510002,0 0.728575,0.29143 0,0.874289 -3.642873,3.278585 -3.642872,2.331438 -5.100021,2.331438 -1.457149,0 -1.457149,-1.311434 0,-0.728574 1.092862,-3.715729 1.092862,-2.987156 2.695725,-8.087177 1.675722,-5.100021 3.788588,-12.094336 2.112865,-7.067172 2.695725,-9.034323 0.655717,-2.040008 0.655717,-2.695725 z"
       style="stroke-width:1px"
       id="path887" />
  </g>
</svg>
